<svg id="Capa_1" data-name="Capa 1" xmlns="http://www.w3.org/2000/svg" viewBox="0 0 297.69 297.69"><defs><style>.cls-1,.cls-5{fill:#fff;}.cls-1,.cls-2{fill-rule:evenodd;}.cls-2,.cls-3{fill:#22804a;}.cls-4{fill:#93b23f;}</style></defs><title>footer</title><path class="cls-1" d="M236.86,29A22.88,22.88,0,0,1,249,25.51a23.24,23.24,0,0,1,23.24,23.17A23.49,23.49,0,0,1,269,60.55l0,.06A151.73,151.73,0,1,1,236.86,29Z"/><path class="cls-2" d="M257,70.26a23.88,23.88,0,0,1-8.12,1.49,22.94,22.94,0,0,1-22.94-23,23.6,23.6,0,0,1,1.43-8.14A133.83,133.83,0,1,0,257,70.26Z"/><path class="cls-3" d="M148.76,282.86c-73.92,0-134.08-60.11-134.08-134.06s60.16-134,134.08-134a133,133,0,0,1,78.79,25.6l.22.15-.09.21a21.91,21.91,0,0,0-1.48,8A22.55,22.55,0,0,0,256.81,70l.29,0,.13.19a133.4,133.4,0,0,1,25.63,78.7c0,73.95-60.18,134.06-134.1,134.06Zm0-267.46C75.17,15.4,15.33,75.24,15.33,148.8A133.56,133.56,0,0,0,148.76,282.24c73.5,0,133.4-59.84,133.4-133.44a132.15,132.15,0,0,0-25.35-78.14,25.38,25.38,0,0,1-8,1.4,23.34,23.34,0,0,1-23.29-23.29,23.59,23.59,0,0,1,1.44-8A132.76,132.76,0,0,0,148.76,15.4Z"/><path class="cls-4" d="M236.6,48.54A12.68,12.68,0,1,1,249.26,61.2,12.64,12.64,0,0,1,236.6,48.54Z"/><path class="cls-4" d="M249.26,61.51a13,13,0,1,1,13-13,13,13,0,0,1-13,13Zm0-25.3a12.35,12.35,0,1,0,12.32,12.33,12.31,12.31,0,0,0-12.32-12.33Z"/><path class="cls-1" d="M83.65,226a8,8,0,0,1,2.76-1.87,8.23,8.23,0,0,1,3.13-.64,7.69,7.69,0,0,1,3.08.64A7.47,7.47,0,0,1,95.48,226l1.09,1.1-2.3,2.33-1.17-1.12a3.81,3.81,0,0,0-1.68-1.12,4.42,4.42,0,0,0-1.88-.37,4.46,4.46,0,0,0-1.87.37A3.8,3.8,0,0,0,86,228.32a3.58,3.58,0,0,0-1.13,1.61,4.67,4.67,0,0,0-.38,1.9,4.35,4.35,0,0,0,.38,1.85A3.68,3.68,0,0,0,86,235.4a5,5,0,0,0,5.39,1.11,5.92,5.92,0,0,0,1.68-1.11l1.17-1.2,2.3,2.37-1.09,1.18a8.71,8.71,0,0,1-2.86,1.82,8.2,8.2,0,0,1-3.08.6,8.78,8.78,0,0,1-3.13-.6,9.44,9.44,0,0,1-2.76-1.82A8.08,8.08,0,0,1,81.84,235a8.62,8.62,0,0,1-.59-3.1,8.81,8.81,0,0,1,.59-3.15A7.23,7.23,0,0,1,83.65,226Z"/><path class="cls-1" d="M110.88,234.32l2.33,2.33-1.15,1.12a7.31,7.31,0,0,1-2.74,1.82,7.24,7.24,0,0,1-3.14.68,7.06,7.06,0,0,1-3.12-.68,6.55,6.55,0,0,1-2.76-1.82,7.2,7.2,0,0,1-1.86-2.7,8.9,8.9,0,0,1-.57-3.16,8.23,8.23,0,0,1,.57-3.09A7.77,7.77,0,0,1,100.3,226a6.82,6.82,0,0,1,2.76-1.81,8,8,0,0,1,3.12-.62,8.78,8.78,0,0,1,5.88,2.43l1.15,1.17L104,236.44a5,5,0,0,0,3,.47,5.22,5.22,0,0,0,2.8-1.46Zm-8.29-6a4.89,4.89,0,0,0-1.43,3.59,5.17,5.17,0,0,0,.52,2.19,8.37,8.37,0,0,1,1.38-1.36l1.84-1.92c.74-.65,1.38-1.34,2-1.95s1.1-1.11,1.44-1.5a5.34,5.34,0,0,0-3-.46A5.52,5.52,0,0,0,102.59,228.32Z"/><path class="cls-1" d="M114.28,231.86a7.45,7.45,0,0,1,.64-3.22,8.2,8.2,0,0,1,1.71-2.63,8.45,8.45,0,0,1,2.73-1.79,7.67,7.67,0,0,1,3.17-.67,8.25,8.25,0,0,1,3.3.67,8.14,8.14,0,0,1,2.63,1.79,9.19,9.19,0,0,1,1.82,2.63,8.83,8.83,0,0,1,.61,3.22v8.34h-3.27v-8.34a4.48,4.48,0,0,0-.44-1.93,5.09,5.09,0,0,0-1-1.61,5.18,5.18,0,0,0-1.63-1.07,5,5,0,0,0-2-.39,4.4,4.4,0,0,0-1.88.39,4.62,4.62,0,0,0-1.66,1.07,4.84,4.84,0,0,0-1,1.61,6.32,6.32,0,0,0-.41,1.93v8.34h-3.26Z"/><path class="cls-1" d="M134.4,226a6.82,6.82,0,0,1,2.79-1.87,7.89,7.89,0,0,1,3.13-.64,8.66,8.66,0,0,1,3.13.64,7,7,0,0,1,2.73,1.87l1.17,1.1L145,229.44l-1.2-1.12a3.43,3.43,0,0,0-1.67-1.12,4.43,4.43,0,0,0-1.85-.37,4.8,4.8,0,0,0-1.93.37,4.11,4.11,0,0,0-1.66,1.12,4.34,4.34,0,0,0-1.09,1.61,5.63,5.63,0,0,0-.35,1.9,5.23,5.23,0,0,0,.35,1.85,4.43,4.43,0,0,0,1.09,1.72,4.83,4.83,0,0,0,3.59,1.46,5.84,5.84,0,0,0,2-.35,5.91,5.91,0,0,0,1.56-1.11l1.2-1.2,2.31,2.37-1.17,1.18a8.17,8.17,0,0,1-2.73,1.82,9.26,9.26,0,0,1-3.13.6,8.42,8.42,0,0,1-3.13-.6,7.85,7.85,0,0,1-2.79-1.82,8.31,8.31,0,0,1-1.84-2.79,7.69,7.69,0,0,1-.61-3.1,7.86,7.86,0,0,1,.61-3.15A7.42,7.42,0,0,1,134.4,226Z"/><path class="cls-1" d="M148.6,231.91a8.77,8.77,0,0,1,.6-3.24A9.75,9.75,0,0,1,151,226a8.39,8.39,0,0,1,2.69-1.77,7.56,7.56,0,0,1,3.19-.66,7.71,7.71,0,0,1,3.25.66,8.46,8.46,0,0,1,2.63,1.77,9,9,0,0,1,1.83,2.64,8.42,8.42,0,0,1,0,6.44,8.74,8.74,0,0,1-1.83,2.66,8.13,8.13,0,0,1-2.63,1.82,7.57,7.57,0,0,1-3.25.68,7.43,7.43,0,0,1-3.19-.68,8.06,8.06,0,0,1-2.69-1.82,9.41,9.41,0,0,1-1.79-2.66A8.79,8.79,0,0,1,148.6,231.91Zm3.25,0a6,6,0,0,0,.37,2,6.07,6.07,0,0,0,1.07,1.62,4.85,4.85,0,0,0,3.58,1.4,5.06,5.06,0,0,0,2-.34,5.68,5.68,0,0,0,1.58-1.06,4.42,4.42,0,0,0,1.09-1.62,5.3,5.3,0,0,0,.38-2,5,5,0,0,0-.38-2,4,4,0,0,0-1.09-1.57,5.09,5.09,0,0,0-3.55-1.45,4.94,4.94,0,0,0-2,.4,4.45,4.45,0,0,0-1.62,1.05,5.27,5.27,0,0,0-1.07,1.57A5.61,5.61,0,0,0,151.85,231.91Z"/><path class="cls-1" d="M181.27,223.5v3.33H171.2a1.8,1.8,0,0,0-1.22.48,1.65,1.65,0,0,0-.43,1.17,1.87,1.87,0,0,0,.43,1.22,1.77,1.77,0,0,0,1.22.49h6.71a3.63,3.63,0,0,1,1.89.42,4.46,4.46,0,0,1,2.65,2.59,4.42,4.42,0,0,1,.4,2,4.24,4.24,0,0,1-.4,1.93,4.6,4.6,0,0,1-1,1.59,5.75,5.75,0,0,1-1.62,1.11,4.79,4.79,0,0,1-1.89.36h-10v-3.31h10a1.65,1.65,0,0,0,1.16-.5,1.56,1.56,0,0,0,.49-1.18,1.44,1.44,0,0,0-.49-1.19,1.74,1.74,0,0,0-1.16-.54H171.2a6.65,6.65,0,0,1-2-.33A4.38,4.38,0,0,1,167.7,232a4.78,4.78,0,0,1-1.14-1.59,5.08,5.08,0,0,1-.31-2,4.69,4.69,0,0,1,.31-1.9A5,5,0,0,1,167.7,225a4.22,4.22,0,0,1,1.54-1,4.57,4.57,0,0,1,2-.44Z"/><path class="cls-1" d="M200.51,223.5v8.33a8,8,0,0,1-.67,3.24,9.36,9.36,0,0,1-1.74,2.68,10.75,10.75,0,0,1-2.7,1.79,8.47,8.47,0,0,1-6.41,0,11.55,11.55,0,0,1-2.74-1.79,10.69,10.69,0,0,1-1.7-2.68,8,8,0,0,1-.65-3.24V223.5h3.29v8.33a4.41,4.41,0,0,0,.38,1.93,5.55,5.55,0,0,0,1,1.66,9.88,9.88,0,0,0,1.58,1.09,6,6,0,0,0,2,.35,5.06,5.06,0,0,0,2-.35,6.53,6.53,0,0,0,1.6-1.09,4.95,4.95,0,0,0,1.44-3.59V223.5Z"/><path class="cls-1" d="M218.11,216.84v15a7.54,7.54,0,0,1-.71,3.24,8.35,8.35,0,0,1-1.72,2.68,9.55,9.55,0,0,1-2.63,1.79,8.87,8.87,0,0,1-3.22.63,8.67,8.67,0,0,1-3.25-.63,10.52,10.52,0,0,1-2.69-1.79,8.58,8.58,0,0,1-1.74-2.68,7.08,7.08,0,0,1-.65-3.24,6.91,6.91,0,0,1,.65-3.25,6.81,6.81,0,0,1,1.74-2.57,7.91,7.91,0,0,1,2.69-1.82,8.33,8.33,0,0,1,3.25-.69h5v-6.66Zm-8.28,20a5.27,5.27,0,0,0,1.9-.35,6.42,6.42,0,0,0,1.64-1.09,5.8,5.8,0,0,0,1-1.66,4.72,4.72,0,0,0,.39-1.93v-5h-5a4.69,4.69,0,0,0-2.05.4,5.45,5.45,0,0,0-2.64,2.66,4.65,4.65,0,0,0-.4,1.94,4.57,4.57,0,0,0,.4,1.93,5,5,0,0,0,1.09,1.66,6.82,6.82,0,0,0,1.55,1.09A5.73,5.73,0,0,0,209.83,236.86Z"/><path class="cls-1" d="M231.85,143.59a14.71,14.71,0,1,1,14.71,14.69A14.73,14.73,0,0,1,231.85,143.59Zm-10.34,0a25,25,0,1,1,25.05,25A25.08,25.08,0,0,1,221.51,143.59Z"/><path class="cls-5" d="M246.56,169.09a25.54,25.54,0,1,1,25.58-25.5,25.6,25.6,0,0,1-25.58,25.5Zm0-50A24.47,24.47,0,1,0,271,143.59a24.5,24.5,0,0,0-24.47-24.49Zm0,39.7a15.25,15.25,0,1,1,15.27-15.21,15.22,15.22,0,0,1-15.27,15.21Zm0-29.42a14.18,14.18,0,1,0,14.14,14.21,14.17,14.17,0,0,0-14.14-14.21Z"/><path class="cls-1" d="M191.87,128.56v10.82l9-.06s4.62-1.32,4.38-5.51c0,0,.4-4.09-4.77-5.35Zm-6.61-9.73s-5.11-.6-5.54,3.86V162.9s-.71,5.4,5.19,5.49h22.42s11.71-1.62,12.08-12.55c0,0,.85-11.69-9.65-13.57,0,0,8.21-1.67,8.21-11.38,0,0-.21-10.92-11.42-12.17C204.74,118.78,185.26,118.83,185.26,118.83Zm6.31,28.79v10.89l9.94-.1s4.6-1.19,4.34-5.37c0,0,.59-4.78-4.94-5.51Z"/><path class="cls-5" d="M207.33,168.73H184.91a5.46,5.46,0,0,1-4.34-1.68,5.72,5.72,0,0,1-1.18-4.11V122.69c.52-4.82,5.94-4.16,5.94-4.16s19.41-.09,21.22-.11c11.47,1.24,11.73,12.37,11.73,12.47,0,7.6-5,10.42-7.33,11.28,9.47,2.57,8.78,13.56,8.78,13.67-.35,11.09-12.25,12.89-12.4,12.89Zm-22.64-49.6c-1.29,0-4.33.36-4.65,3.61V162.9a5.27,5.27,0,0,0,1.05,3.73,4.83,4.83,0,0,0,3.82,1.47h22.36c.67-.1,11.52-1.86,11.81-12.28.09-.49.7-11.42-9.42-13.24v-.67c.36,0,8-1.72,8-11,0-.44-.33-10.65-11.11-11.86-1.72.08-20.44.13-21.25.13a5.09,5.09,0,0,0-.57,0Zm6.59,39.67V147.3l9.63-.06h0c5.85.73,5.3,5.78,5.3,5.78.14,4.37-4.6,5.7-4.6,5.7l-10.35.08Zm.65-10.85v10.18l9.58,0c.12,0,4.21-1.2,4.1-5,0-.25.46-4.52-4.7-5.25l-9,.12Zm-.4-8.23V128.2l8.91-.08v0c5.41,1.3,5.08,5.64,5.08,5.64.2,4.39-4.61,5.83-4.67,5.86l-9.32.06Zm.63-10.85v10.21l8.67-.07c.08,0,4.22-1.27,4-5.2.08-.16.34-3.86-4.49-5.05l-8.22.11Z"/><path class="cls-1" d="M39,118.44s-4.89,1.08-4.39,5.85c0,0,0,4.53,4.49,5H52.3v22.4s-.58,6.89-7.2,6.89c0,0-6.13.66-7.86-6.36l-.28-3.5A5,5,0,0,0,31.17,144s-5.74.54-5.23,6c0,0-1.28,13.3,10,17.58,0,0,21.65,6.5,28-11.26V123.64s.52-5.2-5.44-5.33Z"/><path class="cls-5" d="M44.71,169.32a35.63,35.63,0,0,1-8.94-1.17c-11.16-4.21-10.42-17.19-10.34-18.1a5.67,5.67,0,0,1,1.14-4.28A7.45,7.45,0,0,1,31,143.56a5.63,5.63,0,0,1,6.54,5.17l.25,3.48c1.53,6.4,7.16,5.9,7.16,5.9,6.18,0,6.82-6.17,6.84-6.44V129.88H39.07c-4.94-.62-5-5.51-5-5.51-.59-5.16,4.72-6.42,4.72-6.42l.17,0,19.44-.08a5.88,5.88,0,0,1,4.72,1.79,5.69,5.69,0,0,1,1.28,3.94v33c-3.82,10.53-12.79,12.74-19.7,12.74Zm-8.55-2.21s21,6.32,27.19-10.85V123.64a4.8,4.8,0,0,0-1-3.28,5.16,5.16,0,0,0-3.9-1.49L39,119c-.45.11-4.29,1.2-3.87,5.21,0,.22.1,4.11,4,4.59H52.87v22.92c0,.13-.73,7.43-7.77,7.45-.09,0-6.58.58-8.34-6.79l-.34-3.53a4.4,4.4,0,0,0-5.17-4.28,6.55,6.55,0,0,0-2.62.88,4.24,4.24,0,0,0-2.1,4.44v.14h0c0,.13-1.18,13,9.63,17.05Z"/><path class="cls-1" d="M145.29,125.8s-2.28-8.66-15.52-7.49c0,0-10.73,1.66-13.51,11.86L116,161.64s-.83,6.75,6.48,7.16c0,0,6.09.29,6.09-8V134a5.13,5.13,0,0,1,5.46-5s5.57-.8,5.57,4.78v28.75s-.82,5.7,5.68,6.35c0,0,6.63-.41,6.24-7v-28a5.09,5.09,0,0,1,5.51-4.89s5.44.42,5.44,4.41V162s-1.11,6.36,6.11,6.91c0,0,6.38-.55,6-7.3V132.39s-1.47-14.08-15.57-14.18c0,0-8-.37-12.12,4.62Z"/><path class="cls-5" d="M168.59,169.45h0a6.92,6.92,0,0,1-5.43-2.46,6.4,6.4,0,0,1-1.11-5V133.33c0-3.47-4.9-3.87-4.9-3.87-4.9,0-5.09,4.19-5.09,4.4v27.92a6.45,6.45,0,0,1-3.22,6.48,9,9,0,0,1-3.42,1.06c-2.38-.23-4-1-5.07-2.38a6.68,6.68,0,0,1-1.27-4.49V133.7c0-3.75-2.68-4.28-4.31-4.28a3,3,0,0,0-.6,0c-4.93.11-5.07,4.34-5.07,4.5v26.88c0,8.25-5.9,8.48-6.54,8.48a7.13,7.13,0,0,1-5.46-2.33,7.54,7.54,0,0,1-1.58-5.37l.25-31.54c2.81-10.45,13.81-12.24,14-12.24,10.57-1,14.43,4.32,15.61,6.7l1.14-2.06c3.66-4.5,10.33-4.84,12.36-4.84a1.05,1.05,0,0,1,.25,0c14.36.1,16,14.51,16,14.64l.05,29.33c.4,7.21-6.34,7.81-6.49,7.81Zm-11.55-41c2.12.15,6,1.36,6,4.92V162a5.62,5.62,0,0,0,.92,4.34,6,6,0,0,0,4.6,2,6,6,0,0,0,5.41-6.71V132.39c0-.5-1.53-13.56-15-13.67h-.19c-1.38,0-8,.23-11.55,4.4l-2.21,4.14-.32-1.31c0-.33-2-7.17-12.61-7.17a22.23,22.23,0,0,0-2.36.09s-10.33,1.68-13,11.39l-.26,31.38a7,7,0,0,0,1.28,4.66,6.7,6.7,0,0,0,4.7,2h0c.65,0,5.58-.23,5.58-7.45V134a5.68,5.68,0,0,1,5.94-5.55,3.47,3.47,0,0,1,.73-.06c1.28,0,5.37.39,5.37,5.35v28.75a5.5,5.5,0,0,0,1,3.85,5.78,5.78,0,0,0,4.18,2c.15,0,6.06-.48,5.64-6.46v-28a5.67,5.67,0,0,1,6.08-5.4Z"/><path class="cls-1" d="M68.9,122.63s-.15-3.42,5-4.4c0,0,4.94-.14,5.38,4.25v24.68s-1.09,10.25,10.06,11.47c0,0,12,.23,11.48-12v-24.4s0-4,5.31-4.37c0,0,5.22,0,5,4.37v28.41s-1.89,17-21.11,18.23c0,0-18.17,1-21-17.85Z"/><path class="cls-5" d="M89.74,169.05c-3,0-18.27-.87-20.76-18l-.23-28.44S68.58,119,74,118c.53,0,5.21.17,5.56,4.44v24.68c-.09.46-.83,10.11,9.89,11.26.59,0,5.45,0,8.65-3.37a11,11,0,0,0,2.61-8.4V122.21s0-4.12,5.52-4.54h0a6.43,6.43,0,0,1,4.19,1.57,4.1,4.1,0,0,1,1,3v28.35c0,.21-2.15,17.23-21.32,18.43ZM74.06,118.42c-5.08.91-5,4.17-5,4.17L69.33,151c2.52,16.85,17.42,17.73,20.41,17.73h.36c18.9-1.19,21-18,21-18.11V122.21a3.79,3.79,0,0,0-1-2.72,6.32,6.32,0,0,0-3.93-1.47c-5.1.4-5.17,4.06-5.17,4.19v24.4c.17,3.68-.71,6.58-2.69,8.67-3.27,3.44-8.33,3.52-8.92,3.52-11.19-1.21-10.24-11.56-10.24-11.64V122.48c-.39-4-4.68-4.06-5.1-4.06Z"/></svg>