<svg id="Capa_1" data-name="Capa 1" xmlns="http://www.w3.org/2000/svg" viewBox="0 0 290.95 58.88"><defs><style>.cls-1{fill:#afafaf;}</style></defs><title>footer</title><path class="cls-1" d="M48.74,57.29H42.33V44.77c0-5,0-10,0-14.92C42.4,21.56,46,15.77,52.81,13.06a19.07,19.07,0,0,1,21,4.58c.54.57,1.05,1.16,1.37,1.51,2.79-2,5.16-4.36,8-5.68,10.66-5,23.42,1.36,24.79,13.15,1.17,10,.24,20.24.24,30.6h-5.43c-.07-1.21-.18-2.43-.2-3.65-.16-8-.16-16-.49-23.94a11,11,0,0,0-7-10.31,11.15,11.15,0,0,0-11.49,1.35c-3.68,2.74-4.76,6.69-4.78,11,0,7.18,0,14.35,0,21.52v4H72.32c0-2,0-3.9,0-5.82,0-7.17.2-14.36-.16-21.51A12.07,12.07,0,0,0,53.47,20c-3.58,2.32-4.72,5.83-4.73,9.85q0,11.63,0,23.26Z"/><path class="cls-1" d="M114,0h6V18.79c1.31-.91,2.11-1.42,2.86-2a22.82,22.82,0,0,1,28.27.22,23.71,23.71,0,0,1,6.66,28.19,22.94,22.94,0,0,1-43.89-8.54c-.26-11.67-.1-23.34-.11-35A15.47,15.47,0,0,1,114,0Zm22.74,18.59a16.76,16.76,0,0,0-16.56,16.94C120.3,44.78,128,52.44,137,52.34a16.82,16.82,0,0,0,16.51-17A16.61,16.61,0,0,0,136.77,18.59Z"/><path class="cls-1" d="M229.75,53.91l-5,4.06-4.07-6.4c-3.17,1.91-6.24,4.41-9.75,5.78-9.5,3.7-19.78.5-26-7.58a23.86,23.86,0,0,1-.63-27.86,22.77,22.77,0,0,1,25-9,23.07,23.07,0,0,1,16.81,21.74c.08,2.31.06,4.62,0,6.93C226,46,226.74,50.09,229.75,53.91ZM203.37,18.59a16.58,16.58,0,0,0-16.82,16.6,16.78,16.78,0,0,0,16.38,17.14c9.16.18,17-7.68,16.9-17A16.77,16.77,0,0,0,203.37,18.59Z"/><path class="cls-1" d="M31.28,13.73h6.18v7c0,6.48.14,13-.1,19.44-.37,10.27-7.62,18-17.06,18.64A18.37,18.37,0,0,1,.53,42.3C-.36,33.83.16,25.21.07,16.65c0-.9.14-1.8.24-2.89H6.4c0,3.87,0,7.65,0,11.42.06,5.21-.17,10.44.35,15.6.72,7.15,6.2,11.79,12.82,11.51S30.86,46.81,31,39.41c.18-7.87.07-15.74.09-23.61C31.14,15.23,31.21,14.67,31.28,13.73Z"/><path class="cls-1" d="M233.08.68h6.38V4.57c0,12.48,0,25,0,37.44,0,4.36.31,8.56,3.55,12.22l-4.31,4.51c-4.37-4.18-5.57-9.3-5.59-14.82-.05-11,0-22,0-32.93Z"/><path class="cls-1" d="M181,12.07v6c-8.62,2.73-11.06,6-11.12,15.09-.06,7.75-.07,15.5-.12,23.25,0,.21-.17.41-.36.85h-6c0-3.81,0-7.49,0-11.16.1-6.12,0-12.27.48-18.36C164.6,19,171.76,12.51,181,12.07Z"/><path class="cls-1" d="M270.42,12.15a23.16,23.16,0,0,0-25.2,20.53c-1.34,13.2,7.9,24.82,20.76,26.08,7.83.77,16.36-3.34,20.54-9h0A11.66,11.66,0,0,0,289,44.23v0a9.3,9.3,0,0,0,.13-1.33h-6.6a12.27,12.27,0,0,1-1.95,3.43h0l-.12.14c-4.13,5.42-10.23,7.08-16.82,5.2-6.24-1.77-10.09-6.07-11.8-12.83h38.88C292.41,25,283.52,13.59,270.42,12.15ZM252.29,31.94c-.09-6.2,7.93-13.69,15.93-13.4s15.08,6,15.71,13.4Z"/></svg>