<svg id="Capa_1" data-name="Capa 1" xmlns="http://www.w3.org/2000/svg" viewBox="0 0 295.61 295.68"><defs><style>.cls-1{fill:#fff;}.cls-1,.cls-2{fill-rule:evenodd;}.cls-2,.cls-3{fill:#d2191e;}.cls-4{fill:#edc61b;}</style></defs><title>footer</title><path class="cls-1" d="M235.36,28.75a22.34,22.34,0,0,1,12-3.41,23,23,0,0,1,23,23,22.27,22.27,0,0,1-3.27,11.79l.14.09a150.35,150.35,0,1,1-31.9-31.45Z"/><path class="cls-2" d="M255.26,69.8a24.28,24.28,0,0,1-8,1.45,22.8,22.8,0,0,1-22.81-22.79,21.73,21.73,0,0,1,1.47-8.08A132.83,132.83,0,1,0,255.26,69.8Z"/><path class="cls-3" d="M234.81,48.13a12.57,12.57,0,1,1,12.53,12.55A12.53,12.53,0,0,1,234.81,48.13Z"/><polygon class="cls-4" points="265.28 115.86 236.69 190.86 220.23 190.81 230.98 166.37 211.61 115.93 227.95 115.93 238.58 148.44 239.16 148.44 248.98 115.86 265.28 115.86"/><path class="cls-4" d="M209.08,153.84c0,12-13.13,16.49-25.52,16.49s-25.21-4.76-25.21-16.59H174.6c0,3.72,5.09,5.09,9,5.09,3.74,0,8.72-1,8.72-4.54,0-4.51-6.14-5.18-15.74-7.67-10-2.64-17-7-17.11-16.35,0-11.9,11.61-16,24.07-16,12.29,0,23.49,4.06,23.49,16l-16,0c0-3.31-4.12-4.56-7.51-4.56s-7.45.82-7.45,4.09c0,4.49,6.82,5.08,14.59,6.95C200.55,139.16,209.08,143.19,209.08,153.84Z"/><path class="cls-4" d="M149.24,168.31l-15.19.07v-6h-.6c-2.52,5.1-7.62,7.92-15.57,7.92-13.34.06-24.84-10.89-24.84-28.2C93,124.62,103.52,114.21,117,114.21c7.5,0,13.6,3.05,16.37,7.68l.56-.07-.07-5.89H149.2Zm-15.43-26.22c-.05-7-3.87-13.56-13-13.56s-12,7.3-12,13.63c0,6.61,3.56,13.85,12.72,13.85C130.93,155.92,133.81,148.39,133.81,142.09Z"/><path class="cls-4" d="M191.4,191.37c-41.67-5.62-83.63-6-148.55-1.3l.69-3c65-5.72,116.1-8.68,144.17-7.84,16.54.5,21.6,1.69,21.6,7.59C209.31,193,201.92,192.82,191.4,191.37Z"/><path class="cls-4" d="M84.46,141.76c0,2.05-.28,5.3-.28,5.3l-37.83.06c.4,6.12,5,10.5,11.45,10.47,4.68,0,7.7-1.72,9.14-5l16.5,0c-1.53,7.78-8.3,17.65-25.33,17.65-16.42,0-27.82-12.89-27.82-28.51,0-15.83,10.3-27.55,26.65-27.57S84.46,126.06,84.46,141.76Zm-16.32-5.24c-.12-3.12-2.09-9.61-11-9.61-7.9,0-10.47,6.49-10.85,9.61Z"/><path class="cls-1" d="M81.7,224.13a7.38,7.38,0,0,1,2.7-1.79,7.7,7.7,0,0,1,3.11-.64,7.92,7.92,0,0,1,3.15.64,7.8,7.8,0,0,1,2.72,1.79l1.15,1.16-2.26,2.32L91,226.47a4.42,4.42,0,0,0-1.64-1.11,5.21,5.21,0,0,0-1.88-.38,5.06,5.06,0,0,0-1.85.38A4.88,4.88,0,0,0,84,226.47a4.76,4.76,0,0,0-1.09,1.59,4,4,0,0,0-.36,1.88,3.88,3.88,0,0,0,.36,1.88A4.41,4.41,0,0,0,84,233.46,4.79,4.79,0,0,0,87.51,235a5.71,5.71,0,0,0,1.94-.37A4,4,0,0,0,91,233.46l1.24-1.14,2.26,2.31-1.15,1.21a8,8,0,0,1-5.87,2.37,8,8,0,0,1-3.11-.57,7.8,7.8,0,0,1-2.7-1.8,8.37,8.37,0,0,1-1.85-2.77,9,9,0,0,1-.5-3,9.28,9.28,0,0,1,.5-3.15A8.56,8.56,0,0,1,81.7,224.13Z"/><path class="cls-1" d="M108.69,232.39l2.33,2.33-1.13,1.15a9.31,9.31,0,0,1-2.7,1.84,8.9,8.9,0,0,1-6.32,0,9.31,9.31,0,0,1-2.7-1.84,7.24,7.24,0,0,1-1.81-2.68,10.09,10.09,0,0,1-.57-3.16,9.53,9.53,0,0,1,.57-3.09,7.88,7.88,0,0,1,1.81-2.74,8.83,8.83,0,0,1,5.88-2.43,7.79,7.79,0,0,1,3.13.66,7.32,7.32,0,0,1,2.71,1.77l1.13,1.16-9.22,9.13a4.85,4.85,0,0,0,5.76-.93Zm-8.19-5.88A4.86,4.86,0,0,0,99.07,230a4.74,4.74,0,0,0,.48,2.16c.32-.3.73-.73,1.32-1.29s1.26-1.24,2-1.94,1.3-1.32,1.87-2a16,16,0,0,0,1.49-1.39,4.61,4.61,0,0,0-3-.47A4.49,4.49,0,0,0,100.5,226.51Z"/><path class="cls-1" d="M112.06,230a8.24,8.24,0,0,1,.68-3.22,7.9,7.9,0,0,1,1.71-2.65,7.44,7.44,0,0,1,2.7-1.72,7.94,7.94,0,0,1,6.34,0,7.58,7.58,0,0,1,4.45,4.37,7.56,7.56,0,0,1,.64,3.22v8.27h-3.26V230a5.1,5.1,0,0,0-.37-2,4.31,4.31,0,0,0-1.07-1.55,4.54,4.54,0,0,0-1.62-1.07,4.39,4.39,0,0,0-2-.42,4.81,4.81,0,0,0-2,.42,5.45,5.45,0,0,0-1.58,1.07,4.62,4.62,0,0,0-1,1.55,4.77,4.77,0,0,0-.4,2v8.27h-3.28Z"/><path class="cls-1" d="M132.07,224.13a7.51,7.51,0,0,1,2.76-1.79,8.4,8.4,0,0,1,9,1.79l1.13,1.16-2.34,2.32-1.14-1.14a4.91,4.91,0,0,0-3.53-1.49,5,5,0,0,0-1.87.38,4.81,4.81,0,0,0-1.65,1.11,4.38,4.38,0,0,0-1.1,1.59,4.75,4.75,0,0,0-.4,1.88,4.61,4.61,0,0,0,.4,1.88,4.1,4.1,0,0,0,1.1,1.64,4.82,4.82,0,0,0,3.52,1.51,5.4,5.4,0,0,0,1.9-.37,3.76,3.76,0,0,0,1.63-1.14l1.14-1.14,2.34,2.31-1.13,1.21a8.13,8.13,0,0,1-2.76,1.8,8.37,8.37,0,0,1-9-1.8,9,9,0,0,1-1.84-2.77,11.19,11.19,0,0,1-.58-3,11.47,11.47,0,0,1,.58-3.15A9.23,9.23,0,0,1,132.07,224.13Z"/><path class="cls-1" d="M146.11,230a8.24,8.24,0,0,1,.67-3.22,8,8,0,0,1,1.78-2.61,7,7,0,0,1,2.65-1.72,6.88,6.88,0,0,1,3.15-.71,8.88,8.88,0,0,1,5.87,2.43,6.47,6.47,0,0,1,1.76,2.61,7.61,7.61,0,0,1,.7,3.22,7.74,7.74,0,0,1-.7,3.22,6.43,6.43,0,0,1-1.76,2.62,7.8,7.8,0,0,1-2.62,1.84,8.29,8.29,0,0,1-3.25.58,8.16,8.16,0,0,1-3.15-.58,7.83,7.83,0,0,1-2.65-1.84,8,8,0,0,1-1.78-2.62A8.4,8.4,0,0,1,146.11,230Zm3.31,0a4.93,4.93,0,0,0,.35,1.95,5.33,5.33,0,0,0,1.09,1.65,5.23,5.23,0,0,0,1.62,1,4.32,4.32,0,0,0,1.88.42,4.82,4.82,0,0,0,2-.42,5.37,5.37,0,0,0,1.6-1A5.05,5.05,0,0,0,159,232a4.83,4.83,0,0,0,.44-1.95,4.57,4.57,0,0,0-.44-1.91,4.51,4.51,0,0,0-1.05-1.57,4.14,4.14,0,0,0-1.6-1.1,5.15,5.15,0,0,0-2-.39,4.61,4.61,0,0,0-1.88.39,4.06,4.06,0,0,0-1.62,1.1,4.75,4.75,0,0,0-1.09,1.57A4.67,4.67,0,0,0,149.42,230Z"/><path class="cls-1" d="M178.59,221.7V225h-9.93a1.69,1.69,0,0,0-1.72,1.68,1.52,1.52,0,0,0,.52,1.16,1.57,1.57,0,0,0,1.2.53h6.62a4.91,4.91,0,0,1,1.87.36,6.09,6.09,0,0,1,1.6,1.08,4.35,4.35,0,0,1,1.07,1.53,5.26,5.26,0,0,1,.37,2,4.81,4.81,0,0,1-1.44,3.53,6.84,6.84,0,0,1-1.6,1.06,4.55,4.55,0,0,1-1.87.34h-10V235h10a1.84,1.84,0,0,0,1.22-.48,1.7,1.7,0,0,0,.44-1.21,1.56,1.56,0,0,0-1.66-1.65h-6.62a4.72,4.72,0,0,1-2-.41,5.87,5.87,0,0,1-1.52-1,6.2,6.2,0,0,1-1-1.58,5.05,5.05,0,0,1-.39-1.94,5.13,5.13,0,0,1,.39-1.94,6.2,6.2,0,0,1,1-1.58,5.56,5.56,0,0,1,1.52-1,5.21,5.21,0,0,1,2-.42Z"/><path class="cls-1" d="M197.8,221.7v8.24a9.36,9.36,0,0,1-.65,3.25,10.33,10.33,0,0,1-1.85,2.65,8.28,8.28,0,0,1-2.63,1.77,7.93,7.93,0,0,1-3.2.6,8.11,8.11,0,0,1-3.21-.6,8.83,8.83,0,0,1-2.62-1.77,10.13,10.13,0,0,1-1.79-2.65,8.49,8.49,0,0,1-.6-3.25V221.7h3.25v8.24a4.71,4.71,0,0,0,.37,1.95,4.83,4.83,0,0,0,1.12,1.64,4.45,4.45,0,0,0,1.52,1.07,5.65,5.65,0,0,0,2,.37,5.48,5.48,0,0,0,1.93-.37,5.36,5.36,0,0,0,1.63-1.07,5,5,0,0,0,1.08-1.64,5.46,5.46,0,0,0,.34-1.95V221.7Z"/><path class="cls-1" d="M215.22,215.07v14.87a7.84,7.84,0,0,1-.66,3.25,8.21,8.21,0,0,1-1.75,2.65,8.42,8.42,0,0,1-2.61,1.77,8,8,0,0,1-3.21.6,7.82,7.82,0,0,1-5.82-2.37,8.32,8.32,0,0,1-1.84-2.65,7.87,7.87,0,0,1-.69-3.25,7.44,7.44,0,0,1,.69-3.17,8,8,0,0,1,1.84-2.64,8.36,8.36,0,0,1,2.6-1.79,9,9,0,0,1,3.22-.64h4.93v-6.63ZM207,235a5.61,5.61,0,0,0,1.93-.37,5.3,5.3,0,0,0,1.59-1.07,4.1,4.1,0,0,0,1-1.64,4,4,0,0,0,.39-1.95v-5H207a4.94,4.94,0,0,0-2,.43,4.63,4.63,0,0,0-1.63,1.06,5,5,0,0,0-1,1.58,4.24,4.24,0,0,0-.38,1.89,4.41,4.41,0,0,0,.38,1.95,5,5,0,0,0,1,1.64A5.48,5.48,0,0,0,205,234.6,5.91,5.91,0,0,0,207,235Z"/></svg>