<svg id="Capa_1" data-name="Capa 1" xmlns="http://www.w3.org/2000/svg" viewBox="0 0 294.38 294.3"><defs><style>.cls-1{fill:#fff;}.cls-1,.cls-2{fill-rule:evenodd;}.cls-2{fill:#c31e19;}.cls-3{fill:#e1251b;stroke:#e1251b;stroke-miterlimit:3.86;stroke-width:0.07px;}</style></defs><title>footer</title><path class="cls-1" d="M234.32,28.59a22.36,22.36,0,0,1,12.06-3.4,22.86,22.86,0,0,1,22.81,22.9A22.54,22.54,0,0,1,266,59.82l.09.09a149.59,149.59,0,1,1-31.77-31.32Z"/><path class="cls-2" d="M254.15,69.46a23.54,23.54,0,0,1-8,1.45,22.68,22.68,0,0,1-22.69-22.69,23.09,23.09,0,0,1,1.46-8,132.44,132.44,0,1,0,29.26,29.28Z"/><path class="cls-3" d="M233.87,47.88a12.51,12.51,0,1,1,12.52,12.48A12.54,12.54,0,0,1,233.87,47.88Z"/><path class="cls-1" d="M81.14,223.42a8,8,0,0,1,2.69-1.79A9.58,9.58,0,0,1,87,221a8.86,8.86,0,0,1,3.07.63,8.21,8.21,0,0,1,2.81,1.79L94,224.55l-2.31,2.3-1.16-1.12a5.91,5.91,0,0,0-1.61-1.14,5.32,5.32,0,0,0-1.92-.34,4.4,4.4,0,0,0-3.47,1.48,3.61,3.61,0,0,0-1.11,1.6,4.1,4.1,0,0,0-.37,1.86,4.19,4.19,0,0,0,.37,1.88,3.84,3.84,0,0,0,1.11,1.64A4.6,4.6,0,0,0,87,234.2a4.77,4.77,0,0,0,1.92-.38,4.2,4.2,0,0,0,1.61-1.11l1.16-1.12L94,233.9,92.83,235A8.69,8.69,0,0,1,90,236.87a8.59,8.59,0,0,1-3.07.59,9.25,9.25,0,0,1-3.12-.59A8.52,8.52,0,0,1,81.14,235a7.63,7.63,0,0,1-1.79-2.7,8.44,8.44,0,0,1,0-6.2A7.37,7.37,0,0,1,81.14,223.42Z"/><path class="cls-1" d="M108.09,231.65l2.23,2.34-1.11,1.15a8.41,8.41,0,0,1-2.67,1.75,7.8,7.8,0,0,1-6.28,0,9.21,9.21,0,0,1-2.74-1.75,8.57,8.57,0,0,1-1.73-2.73,9.78,9.78,0,0,1-.68-3.14,9.55,9.55,0,0,1,.68-3.09,8.49,8.49,0,0,1,1.73-2.71,10.25,10.25,0,0,1,2.74-1.81,9.24,9.24,0,0,1,3.16-.57,9.14,9.14,0,0,1,3.08.57,8.53,8.53,0,0,1,2.71,1.81l1.11,1.12-9.06,9.18a5.23,5.23,0,0,0,2.93.44,5.06,5.06,0,0,0,2.73-1.4Zm-8.2-5.89a4.71,4.71,0,0,0-1.49,3.51,4.4,4.4,0,0,0,.55,2.14c.26-.26.68-.7,1.31-1.26s1.24-1.22,1.91-1.92,1.31-1.36,2-2,1.11-1.07,1.45-1.42a5.17,5.17,0,0,0-3-.48A4.76,4.76,0,0,0,99.89,225.76Z"/><path class="cls-1" d="M111.43,229.23A8.12,8.12,0,0,1,112,226a9,9,0,0,1,1.8-2.57,8,8,0,0,1,2.6-1.78,8.25,8.25,0,0,1,6.37,0,8.76,8.76,0,0,1,4.41,4.35,7.66,7.66,0,0,1,.64,3.22v8.24h-3.26v-8.24a4.21,4.21,0,0,0-.43-1.9,3.88,3.88,0,0,0-1-1.57,5,5,0,0,0-1.57-1.08,5.08,5.08,0,0,0-2-.39,4.7,4.7,0,0,0-1.89.39,4.91,4.91,0,0,0-1.6,1.08,4.54,4.54,0,0,0-1.06,1.57,4.45,4.45,0,0,0-.38,1.9v8.24h-3.24Z"/><path class="cls-1" d="M131.31,223.42a8.52,8.52,0,0,1,2.71-1.79,9.17,9.17,0,0,1,3.11-.63,9.38,9.38,0,0,1,3.12.63,7.44,7.44,0,0,1,2.66,1.79l1.18,1.13-2.26,2.3-1.2-1.12a5.1,5.1,0,0,0-1.63-1.14,5,5,0,0,0-1.87-.34,5.2,5.2,0,0,0-1.84.34,6.09,6.09,0,0,0-1.71,1.14,4.61,4.61,0,0,0-1,1.6,4.26,4.26,0,0,0-.39,1.86,4.35,4.35,0,0,0,.39,1.88,5,5,0,0,0,1,1.64,4.87,4.87,0,0,0,3.55,1.49,4.69,4.69,0,0,0,1.91-.38,4.06,4.06,0,0,0,1.59-1.11l1.2-1.12,2.26,2.31L142.91,235a7.88,7.88,0,0,1-2.66,1.85,9.07,9.07,0,0,1-3.12.59,8.88,8.88,0,0,1-3.11-.59,9.08,9.08,0,0,1-2.71-1.85,8.15,8.15,0,0,1-1.77-2.7,8.31,8.31,0,0,1,0-6.2A7.85,7.85,0,0,1,131.31,223.42Z"/><path class="cls-1" d="M145.36,229.27a8.39,8.39,0,0,1,.63-3.21,9.28,9.28,0,0,1,1.74-2.59,8.8,8.8,0,0,1,2.6-1.77,8.75,8.75,0,0,1,6.42,0,9.3,9.3,0,0,1,2.59,1.77,8.08,8.08,0,0,1,1.77,2.59,7.43,7.43,0,0,1,.68,3.21,7.11,7.11,0,0,1-.68,3.17,8.88,8.88,0,0,1-1.77,2.7,8.29,8.29,0,0,1-2.59,1.75,8.14,8.14,0,0,1-6.42,0,7.89,7.89,0,0,1-2.6-1.75,10.3,10.3,0,0,1-1.74-2.7A8,8,0,0,1,145.36,229.27Zm3.26,0a4.49,4.49,0,0,0,.3,1.91,5.15,5.15,0,0,0,1,1.65,6.36,6.36,0,0,0,1.67,1.07,4.85,4.85,0,0,0,1.91.36,5.07,5.07,0,0,0,1.94-.36,5.76,5.76,0,0,0,1.56-1.07,5.67,5.67,0,0,0,1.1-1.65,4.49,4.49,0,0,0,.36-1.91,4.65,4.65,0,0,0-.36-1.91,5.49,5.49,0,0,0-1.1-1.56,4.19,4.19,0,0,0-1.56-1,4.08,4.08,0,0,0-1.94-.43,3.91,3.91,0,0,0-1.91.43,4.61,4.61,0,0,0-1.67,1,5,5,0,0,0-1,1.56A4.62,4.62,0,0,0,148.62,229.27Z"/><path class="cls-1" d="M177.67,221v3.25h-10a1.61,1.61,0,0,0-1.19.51,1.84,1.84,0,0,0-.49,1.15,2.26,2.26,0,0,0,.49,1.22,1.74,1.74,0,0,0,1.19.47h6.57a6,6,0,0,1,2,.38,5.73,5.73,0,0,1,1.53,1,5.12,5.12,0,0,1,1.07,1.59,4.74,4.74,0,0,1,.44,1.92,4.83,4.83,0,0,1-.44,1.93,4.6,4.6,0,0,1-1.07,1.59,4.48,4.48,0,0,1-1.53,1.08,5.31,5.31,0,0,1-2,.36h-9.89V234.2h9.89a2,2,0,0,0,1.27-.46,1.82,1.82,0,0,0,.46-1.24,1.66,1.66,0,0,0-.46-1.19,1.83,1.83,0,0,0-1.27-.48h-6.57a5.31,5.31,0,0,1-1.92-.32,4.43,4.43,0,0,1-1.55-1.11,7.12,7.12,0,0,1-1.08-1.55,5.52,5.52,0,0,1-.36-1.94,5.17,5.17,0,0,1,.36-1.92,6.27,6.27,0,0,1,1.08-1.55,4.09,4.09,0,0,1,1.55-1,4.35,4.35,0,0,1,1.92-.43Z"/><path class="cls-1" d="M196.68,221v8.19a8.09,8.09,0,0,1-.65,3.22A10.68,10.68,0,0,1,194.3,235a8,8,0,0,1-2.62,1.81,8.4,8.4,0,0,1-3.25.63,7.75,7.75,0,0,1-3.13-.63,8.48,8.48,0,0,1-2.71-1.81,11.93,11.93,0,0,1-1.72-2.61,7.93,7.93,0,0,1-.66-3.22V221h3.29v8.19a4.46,4.46,0,0,0,.39,2,5.48,5.48,0,0,0,1,1.63,7.59,7.59,0,0,0,1.54,1,5.58,5.58,0,0,0,2,.38,4.82,4.82,0,0,0,1.93-.38,4.62,4.62,0,0,0,1.63-1,4.53,4.53,0,0,0,1-1.63,4.09,4.09,0,0,0,.4-2V221Z"/><path class="cls-1" d="M214.08,214.38v14.81a7.91,7.91,0,0,1-.64,3.22,8.5,8.5,0,0,1-1.81,2.61,7.5,7.5,0,0,1-2.52,1.81,8.54,8.54,0,0,1-3.21.63,8.08,8.08,0,0,1-3.2-.63,8.28,8.28,0,0,1-2.61-1.81,8.08,8.08,0,0,1-1.83-2.61,8.82,8.82,0,0,1-.61-3.22,8.69,8.69,0,0,1,.61-3.18,6.9,6.9,0,0,1,1.83-2.59,8.64,8.64,0,0,1,2.61-1.76,8.47,8.47,0,0,1,3.2-.66h4.95v-6.62ZM205.9,234.2a4.67,4.67,0,0,0,1.9-.38,5.44,5.44,0,0,0,1.57-1,3.87,3.87,0,0,0,1-1.63,4.26,4.26,0,0,0,.47-2v-4.94H205.9a4.13,4.13,0,0,0-2,.43,4.21,4.21,0,0,0-1.58,1,4.29,4.29,0,0,0-1.05,1.6,4.89,4.89,0,0,0-.35,1.86,5.5,5.5,0,0,0,.35,2,6,6,0,0,0,1.05,1.63,5.63,5.63,0,0,0,1.58,1A5,5,0,0,0,205.9,234.2Z"/><polygon class="cls-1" points="48.01 134.25 38.94 185.67 51.98 185.67 61.03 134.25 48.01 134.25"/><path class="cls-1" d="M56.64,183.88a29.57,29.57,0,0,0,13.06,2.66c12,0,19-5.1,20.23-12.14.83-5.38-1.77-9-9.27-11.48-4.85-1.57-6.37-2.53-6.06-4.4s2.38-2.92,5.47-2.92a21,21,0,0,1,8.8,2.14l3.61-8a26.81,26.81,0,0,0-11.39-2.27c-10.3,0-17.92,5.3-19.18,12.3-.87,4.44,1.74,8.61,10,11.2,4.48,1.47,5.68,2.4,5.31,4.38s-2.18,3-6.08,3a24.23,24.23,0,0,1-10.82-2.79Z"/><path class="cls-1" d="M130.54,163.6c1.61-8.81-1.52-16.13-15.49-16.13a42.38,42.38,0,0,0-16.84,3.3l1.06,7.48a29,29,0,0,1,12.11-2.8c6.41,0,7.11,2.8,6.72,4.84l0,.49c-14.83,0-25.48,4.6-27.08,14.27-1.13,6,3,11.49,11.46,11.49A18.72,18.72,0,0,0,115.24,182h.27l.16,3.71h11.69a46.82,46.82,0,0,1,.88-9Zm-14.11,8.54a7.16,7.16,0,0,1-.53,2,9,9,0,0,1-7.55,4.27c-2.92,0-4.88-1.43-4.41-4.38.81-4.46,6.38-5.91,13.21-5.91Z"/><path class="cls-1" d="M134.89,174.47c-.75,4.25-1.68,8.75-2.27,11.2h11l1.51-5.13h.14c2.16,4.41,6.69,6,11.56,6,9.58,0,20.24-6.67,22.63-20.12,2.14-11.47-3.88-18.81-13.87-18.81-5.85,0-10.59,2-13.63,5.25h-.18l3.73-21.28h-13Zm14.87-10.1a7.68,7.68,0,0,1,.57-2.14,9.86,9.86,0,0,1,8.63-5.71c6,0,8.22,4.58,7.13,10.37-1.13,6.71-5.2,10.51-10.76,10.51-3.83,0-6.39-2.45-6.7-5.51a11.54,11.54,0,0,1,.12-2Z"/><path class="cls-1" d="M219.68,170.77a27.7,27.7,0,0,0,1.3-4.57c1.6-9.24-1.86-18.59-15.44-18.59-14.57,0-23,10.45-24.67,19.87-2.07,11.67,4.81,19,19,19a48.27,48.27,0,0,0,15.63-2.37l-.33-7.87a40.31,40.31,0,0,1-11.82,1.63c-6.06,0-11.12-2.31-10.63-7.1ZM194,162.83c.9-3.05,3.92-7.56,9.44-7.56,5.95,0,6.49,4.77,6,7.56Z"/><polygon class="cls-1" points="221.24 185.67 234.17 185.67 243.75 131.52 230.72 131.52 221.24 185.67"/><path class="cls-1" d="M52.82,126c3,1.6,9.28,3.17,15.81,3.17,15.87,0,24.55-7.28,26.07-15.89C96,106,92.09,101.31,82.49,98c-7.14-2.51-10-4-9.43-7.24.42-2.57,3.56-5,9.24-5a27.22,27.22,0,0,1,11.56,2.43l4.54-9.3c-3.16-1.43-7.67-2.56-14.26-2.56-13.55,0-23,6.63-24.59,15.39-1.3,7.48,4.24,12.19,13.3,15.23,6.53,2.15,9,4,8.43,7.2s-4.19,5.55-10.18,5.55a31.74,31.74,0,0,1-13.91-3.2Z"/><path class="cls-1" d="M135.11,106.4c1.6-8.87-1.53-16.19-15.43-16.19a43.19,43.19,0,0,0-16.9,3.32l1.09,7.52A29,29,0,0,1,116,98.19c6.34,0,7,2.86,6.67,4.87l-.08.5c-14.81,0-25.37,4.57-27.15,14.24-1,6,3.06,11.5,11.57,11.5a18.77,18.77,0,0,0,12.81-4.57h.21l.15,3.65H132a41.94,41.94,0,0,1,.88-9Zm-14.05,8.52a12.61,12.61,0,0,1-.59,2,9,9,0,0,1-7.55,4.25c-2.93,0-4.83-1.45-4.33-4.41.74-4.43,6.32-5.88,13.18-5.88Z"/><path class="cls-1" d="M137.53,128.38h13l3.77-21.5a9.6,9.6,0,0,1,.94-2.9,8.78,8.78,0,0,1,7.48-4.33c4.7,0,6,3.27,5.15,8l-3.63,20.68h13l3.91-22c1.95-11-3.59-16.13-12.17-16.13a18.76,18.76,0,0,0-14,6h-.33l.37-5.18H143.79c-.47,3.33-1,7.28-1.79,11.92Z"/><path class="cls-1" d="M193.2,84.26,192,91.21h-5.57l-1.54,8.53h5.57L187.83,115c-1,5.26-.37,8.85,1.61,11.08,1.81,1.87,5.11,3.17,9.32,3.17a34.84,34.84,0,0,0,8.58-1l1.49-8.75a21.78,21.78,0,0,1-4,.27c-3.78,0-4.75-2-4-6.54l2.34-13.48h9.33l1.54-8.53h-9.31l1.8-10.1Z"/><path class="cls-1" d="M249.76,106.4c1.56-8.87-1.59-16.19-15.59-16.19a42.73,42.73,0,0,0-16.8,3.32l1.08,7.52a29.18,29.18,0,0,1,12.05-2.86c6.42,0,7.21,2.86,6.82,4.87l-.14.5c-14.8,0-25.39,4.57-27.06,14.24-1.08,6,3,11.5,11.49,11.5a18.86,18.86,0,0,0,12.84-4.57h.23l.12,3.65h11.67a51.62,51.62,0,0,1,.94-9Zm-14.16,8.52a9.39,9.39,0,0,1-.57,2,9,9,0,0,1-7.55,4.25c-2.88,0-4.86-1.45-4.33-4.41.77-4.43,6.35-5.88,13.24-5.88Z"/></svg>