<svg id="Capa_1" data-name="Capa 1" xmlns="http://www.w3.org/2000/svg" viewBox="0 0 419.12 43.2"><defs><style>.cls-1{fill:#afafaf;}</style></defs><title>footer</title><path class="cls-1" d="M34.27,33.66,41.64,7.45h6L37.3,42.32H31.22L23.83,15.64,16.38,42.32H10.43L0,7.45H6l7.44,26.21L20.86,7.45h6ZM85.11,25c0,10-7.59,18.15-17.53,18.15S50,35,50,25,57.69,6.57,67.58,6.57,85.11,14.85,85.11,25Zm-5.75,0c0-7.24-5.28-13.13-11.78-13.13S55.86,17.74,55.86,25s5.29,12.86,11.72,12.86S79.36,32.1,79.36,25Zm59.05,17.34h-5.77V19.76c0-4.53-2.9-7.91-7.58-7.91-4.53,0-7.57,3.38-7.57,7.91V42.32h-5.7V19.76c0-4.53-3-7.91-7.58-7.91s-7.58,3.38-7.58,7.91V42.32H90.87V20c0-7.59,5.48-13.41,13.34-13.41a11.59,11.59,0,0,1,10.43,5.75,11.64,11.64,0,0,1,10.42-5.75c7.92,0,13.35,5.82,13.35,13.41Zm40.27-10.84c-2.43,7.45-8.38,11.65-16.45,11.65a17.84,17.84,0,0,1-17.86-18.21c0-10.07,7.84-18.35,17.53-18.35,9,0,17.67,7.45,17.6,19.83H150.19c.74,7.26,6.29,11.51,12,11.51a10.71,10.71,0,0,0,10.36-6.43Zm-5.54-10.21c-1.42-5.69-6.16-9.48-11.24-9.48a12.13,12.13,0,0,0-11.38,9.48Zm18.28,21.05h-5.69V21.13c0-8.81,6.23-14.56,14.56-14.56s14.48,5.75,14.48,14.56V42.32h-5.69V20.92c0-5.22-3.45-9-8.79-9s-8.87,3.77-8.87,9Zm56.73.88c-8.46,0-14.61-4.54-15.57-11.91h5.83c.74,4.05,4.74,6.55,9.74,6.55,5.43,0,8.74-2.64,8.74-5.67,0-2.44-.95-4.28-9.47-5.42S233.8,23.5,233.8,16.93c0-5,4.34-10.36,13.68-10.36,8.06,0,13.48,4.07,14.22,10.9h-5.83c-.8-3.72-4.12-5.62-8.39-5.62-4.6,0-7.92,2.17-7.92,4.87,0,2.52,2,3.39,8.8,4.48,7.72,1.21,14.09,2.7,14.09,10.64C262.45,38.8,256.49,43.2,248.15,43.2Zm53.7-11.72c-2.44,7.45-8.39,11.65-16.45,11.65a17.85,17.85,0,0,1-17.87-18.21c0-10.07,7.85-18.35,17.53-18.35,9,0,17.68,7.45,17.54,19.83H273.35c.74,7.26,6.29,11.51,12,11.51a10.71,10.71,0,0,0,10.35-6.43ZM296.3,21.27c-1.42-5.69-6.16-9.48-11.24-9.48a12.11,12.11,0,0,0-11.37,9.48Zm28.78,21.86c-9.62,0-17.47-8.12-17.47-18.21s7.85-18.35,17.47-18.35a16.68,16.68,0,0,1,16.25,11.64h-6.16a11.22,11.22,0,0,0-10.09-6.36c-6.44,0-11.72,5.89-11.72,13.07s5.28,12.92,11.72,12.92a11,11,0,0,0,10.09-6.36h6.16A16.61,16.61,0,0,1,325.08,43.13ZM362.65,6.77v5.34c-6.7-.6-11,2.65-11,9.36V42.32H346V21.6C346,11,353.51,5.69,362.65,6.77ZM398,31.48c-2.43,7.45-8.39,11.65-16.45,11.65a17.85,17.85,0,0,1-17.88-18.21c0-10.07,7.86-18.35,17.54-18.35,9,0,17.67,7.45,17.6,19.83H369.49c.75,7.26,6.3,11.51,12.06,11.51a10.71,10.71,0,0,0,10.35-6.43Zm-5.56-10.21c-1.42-5.69-6.16-9.48-11.23-9.48a12.12,12.12,0,0,0-11.38,9.48Zm26.68,21.05c-8.12.94-13.74-3.87-13.74-12.73V0h5.69V7.45H419v5.49h-7.91V29.59c0,6.16,3.72,7.72,8.05,7.44Zm-198-29.38V0h5.69V12.94Z"/></svg>