<svg id="Capa_1" data-name="Capa 1" xmlns="http://www.w3.org/2000/svg" viewBox="0 0 298.43 298.44"><defs><style>.cls-1,.cls-5{fill:#fff;}.cls-1,.cls-2{fill-rule:evenodd;}.cls-2,.cls-4{fill:#61acec;}.cls-3{fill:#3484ca;}</style></defs><title>footer</title><path class="cls-1" d="M238.28,29a22.86,22.86,0,0,1,12.15-3.43A23.23,23.23,0,0,1,273.7,48.8a23,23,0,0,1-3.3,11.9l.09.06c18.2,24.77,27.94,55.35,27.94,88.47,0,82.38-66,149.21-148.42,149.21S0,231.61,0,149.23,67.59,0,150,0a148.84,148.84,0,0,1,88.27,29"/><path class="cls-2" d="M258.39,70.43a24.25,24.25,0,0,1-8.11,1.51,23.08,23.08,0,0,1-21.54-31.21,134.41,134.41,0,1,0,29.65,29.7"/><path class="cls-3" d="M149.93,15.5C76.2,15.5,16.2,75.44,16.2,149.18s60,133.76,133.73,133.76,133.73-60,133.73-133.76A132.58,132.58,0,0,0,258.28,70.9a26.44,26.44,0,0,1-8,1.41A23.35,23.35,0,0,1,227,48.91a23.68,23.68,0,0,1,1.38-8.06A133.15,133.15,0,0,0,149.93,15.5Z"/><path class="cls-4" d="M237.75,48.6a12.71,12.71,0,1,1,12.68,12.64A12.69,12.69,0,0,1,237.75,48.6"/><path class="cls-1" d="M84.1,226.52a7.93,7.93,0,0,1,2.79-1.8,8.19,8.19,0,0,1,3.11-.63,8.5,8.5,0,0,1,3.14.63,8.34,8.34,0,0,1,2.75,1.8l1.18,1.16-2.29,2.37-1.2-1.17a5.45,5.45,0,0,0-1.67-1.12,4.52,4.52,0,0,0-1.91-.4,4.81,4.81,0,0,0-1.93.4,5.58,5.58,0,0,0-1.58,1.12,4.92,4.92,0,0,0-1.2,1.63,6.22,6.22,0,0,0-.32,1.91,6.63,6.63,0,0,0,.32,1.89,5.28,5.28,0,0,0,1.2,1.67,4.64,4.64,0,0,0,3.51,1.5,4.77,4.77,0,0,0,1.94-.39A4.66,4.66,0,0,0,93.58,236l1.2-1.17,2.29,2.36-1.18,1.16a9.28,9.28,0,0,1-2.75,1.82,8.5,8.5,0,0,1-3.14.63,8.19,8.19,0,0,1-3.11-.63,8.75,8.75,0,0,1-2.79-1.82,7.38,7.38,0,0,1-1.78-2.76,7.51,7.51,0,0,1-.65-3.13,7.85,7.85,0,0,1,.65-3.16,6.94,6.94,0,0,1,1.78-2.76"/><path class="cls-1" d="M111.38,234.9l2.37,2.31-1.19,1.19a7.16,7.16,0,0,1-2.67,1.78,8,8,0,0,1-6.42,0,8,8,0,0,1-2.71-1.78,7.28,7.28,0,0,1-1.8-2.8,7.85,7.85,0,0,1-.58-3.16,7.62,7.62,0,0,1,.58-3.05,7.31,7.31,0,0,1,1.8-2.81,7.85,7.85,0,0,1,2.76-1.77,7.52,7.52,0,0,1,3.18-.65,9,9,0,0,1,5.86,2.42l1.19,1.18L104.53,237a4.45,4.45,0,0,0,2.88.46,4.66,4.66,0,0,0,2.81-1.47Zm-8.29-6a4.91,4.91,0,0,0-1.5,3.55,4.64,4.64,0,0,0,.54,2.22c.31-.26.75-.72,1.34-1.33s1.26-1.25,2-1.91,1.32-1.37,2-2a18.22,18.22,0,0,0,1.43-1.45,4.64,4.64,0,0,0-3-.49,5.23,5.23,0,0,0-2.72,1.41"/><path class="cls-1" d="M114.77,232.44a7.67,7.67,0,0,1,.64-3.21,9.33,9.33,0,0,1,1.8-2.68,8.42,8.42,0,0,1,5.86-2.4,7.34,7.34,0,0,1,3.24.66,7.57,7.57,0,0,1,2.69,1.74,8.74,8.74,0,0,1,1.86,2.68,9.39,9.39,0,0,1,.6,3.21v8.34h-3.34v-8.34a4.27,4.27,0,0,0-.38-1.93,5.17,5.17,0,0,0-1.1-1.62,4.44,4.44,0,0,0-1.54-1.07,5.33,5.33,0,0,0-2-.41,5,5,0,0,0-1.94.41,5.18,5.18,0,0,0-1.59,1.07,6.48,6.48,0,0,0-1,1.62,3.9,3.9,0,0,0-.35,1.93v8.34h-3.38Z"/><path class="cls-1" d="M135,226.52a8,8,0,0,1,2.77-1.8,8.69,8.69,0,0,1,3.17-.63,8.17,8.17,0,0,1,3.13.63,10.34,10.34,0,0,1,2.81,1.8l1.12,1.16-2.34,2.37-1.18-1.17a5.88,5.88,0,0,0-1.65-1.12,4.43,4.43,0,0,0-1.89-.4,4.48,4.48,0,0,0-1.88.4,5.15,5.15,0,0,0-1.68,1.12,4.2,4.2,0,0,0-1.16,1.63,5.94,5.94,0,0,0-.34,1.91,6.34,6.34,0,0,0,.34,1.89,4.48,4.48,0,0,0,1.16,1.67,4.75,4.75,0,0,0,3.56,1.5,4.57,4.57,0,0,0,1.89-.39,5.21,5.21,0,0,0,1.65-1.11l1.18-1.17,2.34,2.36-1.12,1.16a11.8,11.8,0,0,1-2.81,1.82,8.17,8.17,0,0,1-3.13.63,8.69,8.69,0,0,1-3.17-.63,8.88,8.88,0,0,1-2.77-1.82,8.26,8.26,0,0,1-1.8-2.76,9.68,9.68,0,0,1-.56-3.13,10.16,10.16,0,0,1,.56-3.16,7.71,7.71,0,0,1,1.8-2.76"/><path class="cls-1" d="M149.19,232.44a7.62,7.62,0,0,1,.65-3.17,6.9,6.9,0,0,1,1.75-2.69,8.73,8.73,0,0,1,2.65-1.77,7.84,7.84,0,0,1,3.25-.65,7.4,7.4,0,0,1,3.2.65,8.4,8.4,0,0,1,2.75,1.77,8.8,8.8,0,0,1,1.77,2.69,7.17,7.17,0,0,1,.64,3.17,7.61,7.61,0,0,1-.64,3.29,10.78,10.78,0,0,1-1.77,2.67,9.12,9.12,0,0,1-2.75,1.78,7.13,7.13,0,0,1-3.2.67,7.55,7.55,0,0,1-3.25-.67,9.56,9.56,0,0,1-2.65-1.78,8.55,8.55,0,0,1-2.4-6m3.21,0a5.05,5.05,0,0,0,.4,2,5.4,5.4,0,0,0,1.11,1.61,7.08,7.08,0,0,0,1.55,1.08,5.79,5.79,0,0,0,2,.35,5.92,5.92,0,0,0,2-.35,6.19,6.19,0,0,0,1.54-1.08,4.31,4.31,0,0,0,1.09-1.61,4.89,4.89,0,0,0,.39-2,4.62,4.62,0,0,0-.39-1.92,3.85,3.85,0,0,0-1.09-1.58,4.27,4.27,0,0,0-1.54-1.05,4.88,4.88,0,0,0-2-.42,4.77,4.77,0,0,0-2,.42,5.27,5.27,0,0,0-2.66,2.63,4.79,4.79,0,0,0-.4,1.92"/><path class="cls-1" d="M182,224.09v3.27H171.87a1.57,1.57,0,0,0-1.24.53,1.62,1.62,0,0,0-.45,1.19,1.86,1.86,0,0,0,.45,1.2,1.72,1.72,0,0,0,1.24.49h6.68a4.44,4.44,0,0,1,1.9.42,5.31,5.31,0,0,1,1.62,1,4.49,4.49,0,0,1,1.07,1.65,4.6,4.6,0,0,1,.34,1.86,5.44,5.44,0,0,1-.34,2,5.29,5.29,0,0,1-1.07,1.63,8.81,8.81,0,0,1-1.62,1,4.56,4.56,0,0,1-1.9.39H168.47v-3.3h10.08a1.51,1.51,0,0,0,1.21-.51,1.68,1.68,0,0,0,.46-1.24,1.52,1.52,0,0,0-.46-1.15,1.46,1.46,0,0,0-1.21-.48h-6.68a4.86,4.86,0,0,1-3.55-1.46,4.34,4.34,0,0,1-1-1.6,3.86,3.86,0,0,1-.42-2,3.66,3.66,0,0,1,.42-1.94,4.15,4.15,0,0,1,1-1.63,7.1,7.1,0,0,1,1.54-1,5.18,5.18,0,0,1,2-.4Z"/><path class="cls-1" d="M201.23,224.09v8.33a7.19,7.19,0,0,1-.69,3.18,7.91,7.91,0,0,1-1.71,2.73,11.26,11.26,0,0,1-2.65,1.82,9.47,9.47,0,0,1-3.28.63,9.15,9.15,0,0,1-3.23-.63,10.15,10.15,0,0,1-2.68-1.82,8.43,8.43,0,0,1-1.8-2.73,8.09,8.09,0,0,1-.62-3.18v-8.33h3.29v8.33a5.14,5.14,0,0,0,.39,2,4.45,4.45,0,0,0,1.11,1.58,4.94,4.94,0,0,0,1.55,1.11,5.22,5.22,0,0,0,4,0,5.45,5.45,0,0,0,1.61-1.11,6.84,6.84,0,0,0,1.13-1.58,6,6,0,0,0,.35-2v-8.33Z"/><path class="cls-1" d="M218.84,217.4v15a6.66,6.66,0,0,1-.67,3.18,7.67,7.67,0,0,1-1.73,2.73,9.26,9.26,0,0,1-2.68,1.82,8.94,8.94,0,0,1-3.16.63,9.11,9.11,0,0,1-3.27-.63,9.4,9.4,0,0,1-2.68-1.82,8.51,8.51,0,0,1-1.83-2.73,7.19,7.19,0,0,1-.69-3.18,7.54,7.54,0,0,1,.69-3.26,8.68,8.68,0,0,1,1.83-2.64,8,8,0,0,1,2.68-1.76,7.84,7.84,0,0,1,3.27-.67h5V217.4Zm-8.24,20.08a4.39,4.39,0,0,0,1.87-.39,5.22,5.22,0,0,0,1.64-1.11,4.08,4.08,0,0,0,1-1.58,4.28,4.28,0,0,0,.44-2v-5.06h-5a5.14,5.14,0,0,0-2,.45,4.94,4.94,0,0,0-2.66,2.68,5,5,0,0,0-.38,1.93,5.32,5.32,0,0,0,.38,2A5.07,5.07,0,0,0,207,236a5.49,5.49,0,0,0,1.59,1.11,5.27,5.27,0,0,0,2,.39"/><path class="cls-5" d="M83.47,145c0,15.79-4.85,24.17-14.56,24.17a19,19,0,0,1-15.86-8.89V131c4.05-5.13,9.24-8.53,15.48-8.53,9.33,0,14.94,7.78,14.94,22.55m8.24-.09c0-20.74-9.33-29.67-21-29.67-8,0-13.59,3.88-17.64,8.39v-7.2H44.6v80.36l8.45-4.71V168.63c4.05,4.67,9.1,7.83,16.49,7.83,12.38,0,22.17-10.73,22.17-31.53"/><path class="cls-5" d="M136.64,160.81a20.48,20.48,0,0,1-16.85,8.82c-7.17,0-12-3.84-12-12.55,0-7.4,5.14-11.5,13.79-11.5,7.18,0,11.31,1.22,15.07,3.32Zm8.48,14.4v-41c0-13.67-8-19-20.66-19a42,42,0,0,0-19.67,4.67l3.17,6.81a30.71,30.71,0,0,1,15.93-4.44c8.63,0,12.75,4.23,12.75,13v6.93a30.74,30.74,0,0,0-14.57-3.35c-11.66,0-22.56,5.6-22.56,18.77,0,14.24,9.69,18.82,18.86,18.82,8.32,0,14.15-3.92,18.27-8.44v7.19Z"/><path class="cls-5" d="M188.87,116.71c-2.06-.94-4.83-1.45-9.13-1.45a17.36,17.36,0,0,0-14.6,8.48v-7.29h-8.4v58.76h8.4V140.76c0-11.23,4.64-17.81,12.75-17.81a17,17,0,0,1,8.88,2.25Z"/><rect class="cls-5" x="198.16" y="116.45" width="8.44" height="58.76"/><path class="cls-5" d="M256.29,159.87c0-10.55-6.5-13.79-17.61-18.78-9.93-4.49-13-6.49-13-11.43,0-4.27,3.64-7.3,9.8-7.3s10.08,1.72,14.67,5.3l4.67-6.14c-4.47-3.69-10.72-6.26-18.8-6.26-10.61,0-18.35,6-18.35,15,0,9.4,4.94,12.95,16.68,18,10.38,4.44,13.85,7.14,13.85,12,0,5.71-3.77,9.09-11.85,9.09-5.78,0-11.22-2.39-16-6.51L215.44,169a32.65,32.65,0,0,0,20.7,7.51c10.19,0,20.15-5.05,20.15-16.59"/></svg>