<svg id="Capa_1" data-name="Capa 1" xmlns="http://www.w3.org/2000/svg" viewBox="0 0 599.1 41.29"><defs><style>.cls-1{fill:#afafaf;}</style></defs><title>footer</title><path class="cls-1" d="M16.9,1.89,0,40.43H6.18l4.48-11.17h16.2L31.2,40.43h6.57L21.54,1.89ZM12.69,24.2,18.88,8.75l6,15.45Z"/><path class="cls-1" d="M280.68,1.89l-16.9,38.54H270l4.48-11.17h16.2L295,40.43h6.57L285.32,1.89ZM276.47,24.2l6.19-15.45,6,15.45Z"/><path class="cls-1" d="M458.31,1.89l-16.9,38.54h6.18l4.48-11.17h16.19l4.35,11.17h6.56L463,1.89ZM454.09,24.2l6.2-15.45,6,15.45Z"/><polygon class="cls-1" points="73.02 28.07 59.79 0.44 51.77 40.43 57.47 40.43 61.33 15.22 72.97 40.43 84.61 15.22 87.99 40.43 94.17 40.43 85.77 0.44 73.02 28.07"/><polygon class="cls-1" points="115.27 1.7 111.78 1.7 111.78 35.38 111.78 40.43 117.36 40.43 132.04 40.43 132.04 35.38 117.36 35.38 117.36 21.63 132.04 21.63 132.04 16.57 117.36 16.57 117.36 6.76 132.04 6.76 132.04 1.7 117.36 1.7 115.27 1.7"/><polygon class="cls-1" points="408.51 1.7 405.02 1.7 405.02 35.38 405.02 40.43 410.6 40.43 425.28 40.43 425.28 35.38 410.6 35.38 410.6 21.63 425.28 21.63 425.28 16.57 410.6 16.57 410.6 6.76 425.28 6.76 425.28 1.7 410.6 1.7 408.51 1.7"/><polygon class="cls-1" points="599.11 6.76 599.11 1.7 584.42 1.7 582.33 1.7 578.85 1.7 578.85 35.38 578.85 40.43 584.42 40.43 599.11 40.43 599.11 35.38 584.42 35.38 584.42 21.63 599.11 21.63 599.11 16.57 584.42 16.57 584.42 6.76 599.11 6.76"/><polygon class="cls-1" points="549.94 1.7 544.36 1.7 544.36 35.38 544.36 40.43 549.94 40.43 561.05 40.43 561.05 35.38 549.94 35.38 549.94 1.7"/><rect class="cls-1" x="195.03" y="1.7" width="5.58" height="38.73"/><polygon class="cls-1" points="347.07 28.89 322.61 3.69 320.67 1.7 317.03 1.7 317.03 40.43 322.61 40.43 322.61 12.73 347.07 37.43 350.04 40.43 352.64 40.43 352.64 34.63 352.64 1.7 347.07 1.7 347.07 28.89"/><path class="cls-1" d="M174.14,12.42a10.61,10.61,0,0,0-10.6-10.61h-5.72V1.7h-5.57V40.43h5.57v-16l11.07,16.07c.39-.1,8,0,8,0L164.31,23A10.61,10.61,0,0,0,174.14,12.42ZM162.71,6.76a5.76,5.76,0,0,1,5.59,5.92,5.76,5.76,0,0,1-5.59,5.92h-4.89V6.76Z"/><path class="cls-1" d="M238.19.25c-8.21,0-19.42,6.51-19.42,19.58v1.88c0,13.06,11.21,19.58,19.42,19.58,7.63,0,10.62-3.67,10.62-3.67V31.05a16,16,0,0,1-10.62,4.15c-13.24,0-13.91-13.49-13.91-13.49V19.83S225,6.34,238.19,6.34a16,16,0,0,1,10.62,4.15V3.92S245.82.25,238.19.25Z"/><path class="cls-1" d="M510.63,25.55h8.93s.71,9.83-11,9.83A12.56,12.56,0,0,1,499,31c-5.14-5.7-5.66-14.41-.45-20a13.13,13.13,0,0,1,10.08-4.17s5.49-.65,11.6,5.62l4.86-4.07S520.35,0,508.59,0s-20.22,10.31-20.22,21.07,8.15,19.36,20.22,19.36c11.13,0,17.87-5.16,17.87-20.6H510.63Z"/></svg>