<svg id="Capa_1" data-name="Capa 1" xmlns="http://www.w3.org/2000/svg" viewBox="0 0 600 597.61"><defs><style>.cls-1{fill:#377f80;}.cls-2{fill:#fff;}</style></defs><title>mainFooter-logos-giftcard</title><path class="cls-1" d="M0,597.61H600V0H0Z"/><path class="cls-2" d="M127.18,425.62a18.72,18.72,0,0,1,7.18-4.81,22,22,0,0,1,8.19-1.7,21.29,21.29,0,0,1,8.11,1.7A19.32,19.32,0,0,1,158,425.6l3,2.89-6,6.29-3-3.15a14.11,14.11,0,0,0-4.39-2.8,12.86,12.86,0,0,0-4.93-1.05,13.17,13.17,0,0,0-5,1.05,13.84,13.84,0,0,0-4.36,2.81,15.16,15.16,0,0,0-2.89,4.31,12.86,12.86,0,0,0-.92,5.07,12.72,12.72,0,0,0,.92,5,15.17,15.17,0,0,0,2.92,4.32,13.1,13.1,0,0,0,14.28,2.87,11.82,11.82,0,0,0,4.33-2.89l3-3.05,6,6.15-3,3a21.5,21.5,0,0,1-7.28,4.88,21,21,0,0,1-8.1,1.58,21,21,0,0,1-15.38-6.45,20.47,20.47,0,0,1-4.75-7.17A22.66,22.66,0,0,1,121,441a23.27,23.27,0,0,1,1.46-8.22,19.67,19.67,0,0,1,4.76-7.17"/><path class="cls-2" d="M198.27,447.52l6.13,6.08-3.05,3.06a21.63,21.63,0,0,1-23.64,4.78,23.51,23.51,0,0,1-7.09-4.78,20,20,0,0,1-4.66-7.33,20.68,20.68,0,0,1-1.62-8.17,22.9,22.9,0,0,1,6.26-15.46,22.55,22.55,0,0,1,7.2-4.77,21.72,21.72,0,0,1,8.26-1.55,21.47,21.47,0,0,1,8.16,1.54,21.11,21.11,0,0,1,7.13,4.78l3.05,3.12L180.25,453a12.8,12.8,0,0,0,15-2.62Zm-21.52-15.73a13.54,13.54,0,0,0-2.53,15.1c.8-.77,1.94-1.9,3.53-3.53s3.23-3.31,5.06-5.07c1.74-1.91,3.48-3.51,5.11-5.18s2.9-2.84,3.8-3.73a12,12,0,0,0-7.66-1.28,12.83,12.83,0,0,0-7.31,3.69"/><path class="cls-2" d="M209,432.53a22.4,22.4,0,0,1,4.68-6.94,21.41,21.41,0,0,1,6.9-4.67,19.94,19.94,0,0,1,8.4-1.73,20.75,20.75,0,0,1,8.49,1.71,23.46,23.46,0,0,1,6.93,4.68,23.89,23.89,0,0,1,4.67,6.92,21.89,21.89,0,0,1,1.7,8.55v21.88h-8.65V441.05a13.85,13.85,0,0,0-1-5.15,11.15,11.15,0,0,0-2.81-4.19,12.59,12.59,0,0,0-4.24-2.82,12.67,12.67,0,0,0-14.27,2.84,10.82,10.82,0,0,0-2.85,4.19,12.22,12.22,0,0,0-1.08,5.15l0,21.88h-8.56V441.07a20.54,20.54,0,0,1,1.67-8.54"/><path class="cls-2" d="M260,425.58a19.19,19.19,0,0,1,7.17-4.81,22.18,22.18,0,0,1,8.22-1.69,21.24,21.24,0,0,1,8.12,1.69,19.13,19.13,0,0,1,7.19,4.79l3.1,2.87-6.06,6.3-3-3.13a14,14,0,0,0-4.45-2.81,12.66,12.66,0,0,0-4.9-1,13,13,0,0,0-5,1,13,13,0,0,0-7.15,7.1,15.48,15.48,0,0,0-1,5.09,14.8,14.8,0,0,0,1,5,13.06,13.06,0,0,0,2.89,4.33,12.71,12.71,0,0,0,9.28,3.86,13.27,13.27,0,0,0,5.06-1,13.59,13.59,0,0,0,4.28-2.87l3-3.08,6.07,6.16-3.07,3a22.06,22.06,0,0,1-7.22,4.88,21.36,21.36,0,0,1-8.11,1.57,22.29,22.29,0,0,1-8.22-1.57,22.67,22.67,0,0,1-7.17-4.88A20.69,20.69,0,0,1,253.82,441a22.65,22.65,0,0,1,1.42-8.25,21,21,0,0,1,4.73-7.16"/><path class="cls-2" d="M297.06,441.11a23.12,23.12,0,0,1,1.72-8.55,22.86,22.86,0,0,1,4.67-6.89,21.61,21.61,0,0,1,6.9-4.68,19.5,19.5,0,0,1,8.44-1.66,20.16,20.16,0,0,1,8.49,1.64,22.94,22.94,0,0,1,6.89,4.69,21,21,0,0,1,4.63,6.88,20.76,20.76,0,0,1,1.78,8.55,20,20,0,0,1-1.78,8.47,21.25,21.25,0,0,1-4.62,7,22.55,22.55,0,0,1-6.89,4.72A20.25,20.25,0,0,1,318.8,463a19.94,19.94,0,0,1-8.45-1.75,22.06,22.06,0,0,1-6.9-4.72,23.27,23.27,0,0,1-4.67-7,22.83,22.83,0,0,1-1.72-8.47m8.56,0a12.45,12.45,0,0,0,3.92,9.4,11.65,11.65,0,0,0,4.15,2.84,13.09,13.09,0,0,0,5.12,1,13.36,13.36,0,0,0,5.13-1,13,13,0,0,0,4.13-2.84,12.71,12.71,0,0,0,2.83-4.16,14.93,14.93,0,0,0,0-10.48,12.14,12.14,0,0,0-2.83-4,12.5,12.5,0,0,0-4.15-2.86,11.33,11.33,0,0,0-5.13-1.05,11.1,11.1,0,0,0-5.1,1.06,11.42,11.42,0,0,0-4.15,2.87,11.83,11.83,0,0,0-2.91,4,12.68,12.68,0,0,0-1,5.22"/><path class="cls-2" d="M382.45,419.05v8.68H356.33a4.44,4.44,0,0,0-3.17,1.24,4.35,4.35,0,0,0-1.27,3.21,4.44,4.44,0,0,0,1.27,3.09,4.29,4.29,0,0,0,3.17,1.28h17.34a11.91,11.91,0,0,1,5.1,1.12,13.86,13.86,0,0,1,4.18,2.71,11.82,11.82,0,0,1,2.78,4.12A13.39,13.39,0,0,1,383,459a17.5,17.5,0,0,1-4.18,2.87,13.61,13.61,0,0,1-5.08.94H347.56v-8.69h26.13a4,4,0,0,0,3.21-1.3,4.24,4.24,0,0,0,1.3-3.21,4.59,4.59,0,0,0-1.3-3.1,4.48,4.48,0,0,0-3.21-1.2l-17.36,0a12.75,12.75,0,0,1-5.15-1.11,11,11,0,0,1-4-2.76,12.33,12.33,0,0,1-2.87-4.16,14.15,14.15,0,0,1,0-10.35,11.36,11.36,0,0,1,2.86-4.09,13,13,0,0,1,4-2.78,13.43,13.43,0,0,1,5.15-1h26.12Z"/><path class="cls-2" d="M432.93,419l0,21.85a21.57,21.57,0,0,1-1.68,8.51,21.3,21.3,0,0,1-4.71,6.93,20.6,20.6,0,0,1-6.93,4.81,22.13,22.13,0,0,1-8.42,1.64,22.53,22.53,0,0,1-8.44-1.63,21.17,21.17,0,0,1-6.84-4.82,20.56,20.56,0,0,1-4.66-6.92,20.1,20.1,0,0,1-1.76-8.51l0-21.85h8.6l0,21.86a13.38,13.38,0,0,0,1.07,5.17,13,13,0,0,0,2.76,4.21,12.41,12.41,0,0,0,4.18,2.77,12.22,12.22,0,0,0,5.08,1,12.75,12.75,0,0,0,5.17-1,12.12,12.12,0,0,0,4.18-2.77,12.51,12.51,0,0,0,2.8-4.22,13.6,13.6,0,0,0,.92-5.16l0-21.85Z"/><path class="cls-2" d="M479,401.48v39.39a22.23,22.23,0,0,1-1.74,8.5,21.65,21.65,0,0,1-4.67,6.94,20.73,20.73,0,0,1-6.9,4.81,22.26,22.26,0,0,1-16.82,0,21.19,21.19,0,0,1-6.93-4.8,20.81,20.81,0,0,1-4.68-6.92,21.24,21.24,0,0,1-1.7-8.51,21.56,21.56,0,0,1,1.7-8.59,22.63,22.63,0,0,1,4.68-7,26.16,26.16,0,0,1,6.93-4.63A21.53,21.53,0,0,1,457.3,419h13l0-17.51Zm-21.72,52.59a12.29,12.29,0,0,0,5.09-1,12,12,0,0,0,4.2-2.79,17.93,17.93,0,0,0,2.83-4.21,14.47,14.47,0,0,0,.9-5.17V427.7h-13a11.67,11.67,0,0,0-5.06,1.13,11,11,0,0,0-4.23,2.71,13,13,0,0,0-2.87,4.23,12.67,12.67,0,0,0-1,5.12,12.84,12.84,0,0,0,1,5.17,13.33,13.33,0,0,0,2.87,4.21,13.56,13.56,0,0,0,9.31,3.8"/><path class="cls-2" d="M220.37,253.32V232a42.6,42.6,0,0,1-8.09,10.52c-5.44,5-18.82,13.79-38.82,13.79a65.35,65.35,0,0,1-17.8-2.36c-6.91-1.78-23.67-7.12-33.82-25.36a55,55,0,0,1-6.92-27.29c0-6.38.89-22.25,12.66-36,6.62-7.86,21-19.87,46.46-19.87,5.3,0,25.29.74,40.3,12.9a56.61,56.61,0,0,1,12.5,14.83l-9.7,5.64a35.13,35.13,0,0,0-4.71-7.27c-9.56-12-24.71-16.6-39.27-16.6a52.28,52.28,0,0,0-19.11,3.4c-18.1,7-28.39,23.44-28.39,42.73,0,4.88.58,18.37,10,29.65,5.58,6.66,17.49,16.3,38.67,16.3a56,56,0,0,0,15.29-2.07c12.37-3.71,23.83-12.61,28.4-25.06a45.35,45.35,0,0,0,2.33-12.31H165.23v-8.9h64.11v54.72Z"/><path class="cls-2" d="M252.29,253.32V148.62h9.84v104.7Z"/><path class="cls-2" d="M289.5,160.49,297,196.94l74.88-15.7,1.83,8.86-74.87,15.69,10,48.78L299,256.66,277.83,154.14l93.59-19.61,1.75,8.43Z"/><path class="cls-2" d="M440.53,157.22v96.1h-9.86v-96.1H384.05v-8.6h101v8.6Z"/><path class="cls-2" d="M156.76,361.45c-6.62,4.89-18.24,11.87-37.94,11.87-19,0-29.86-5.94-36.32-10.69-14.13-10.52-22.07-26.85-22.07-44.78A52.67,52.67,0,0,1,72.49,283.6c15.89-19.29,38.25-20.92,46.47-20.92,6.48,0,25.6,1.19,40.59,15,4.71,4.31,7.51,8.47,10.89,13.8l-8.82,4.9a55.9,55.9,0,0,0-8.1-11.12C141.47,272.77,124.4,272,119.26,272c-5.73,0-22.65,1-35.29,14.09-11.48,11.85-12.51,27-12.51,32.47,0,5.79,1,20.17,13,32,12.64,12.74,29.26,13.49,35,13.49,7,0,24.4-1,37.94-16.47a53.47,53.47,0,0,0,6.74-9.48l9,4.3A57.34,57.34,0,0,1,156.76,361.45Z"/><path class="cls-2" d="M280.89,370.64,267.5,343.51H200.59l-13.24,27.13H176.91l51.18-104.7h11.18l52.35,104.7Zm-47.21-95.35L204.56,335.2h58.82Z"/><path class="cls-2" d="M403.22,370.64l-41-46.71h-47.5v46.71h-10V265.94h71.76c2.5,0,5,0,7.51.15,4.26.15,16.47.74,23.81,12,4.28,6.53,4.57,13.8,4.57,16.61,0,4.15-.74,15.14-10.59,22.55-7.79,5.78-17.21,6.22-26.33,6.67l41.75,46.72h-14ZM393.54,278c-5.15-3.42-10.9-3.42-16.78-3.42H314.71V315h55.73c2.35,0,4.56,0,6.91-.15,8.68-.44,17.36-1.94,21.77-10.69a23.58,23.58,0,0,0,2.35-10.08C401.47,291.6,400.74,282.86,393.54,278Z"/><path class="cls-2" d="M537.51,334.9c-3.54,13.21-11.92,24.63-24.42,30.4-10.59,4.9-21.45,5.34-32.65,5.34H433.38V265.94H485.3c3.1,0,6.18,0,9.27.3,10.29.74,19.12,3.71,27.35,10.52,16.75,14,17.65,35.31,17.65,41.83A65.31,65.31,0,0,1,537.51,334.9Zm-33.23-57.38c-6.77-2.54-11.92-3-19-3H443.68V361.9h33.08c14,0,29.71-.3,40.59-10.67,5.59-5.36,11.78-14.84,11.78-32C529.13,301.53,521.77,284,504.28,277.52Z"/></svg>