<svg id="Capa_1" data-name="Capa 1" xmlns="http://www.w3.org/2000/svg" viewBox="0 0 495.15 65.7"><defs><style>.cls-1{fill:#ababab;fill-rule:evenodd;}</style></defs><title>logos-partner</title><polygon class="cls-1" points="261.44 3.27 250.62 64.65 266.18 64.65 276.99 3.27 261.44 3.27"/><path class="cls-1" d="M271.74,62.52c3.44,1.8,9.07,3.18,15.6,3.18,14.3,0,22.63-6.09,24.16-14.5,1-6.42-2.12-10.77-11.08-13.7-5.79-1.88-7.59-3-7.23-5.26s2.85-3.48,6.53-3.48a25,25,0,0,1,10.51,2.55l4.3-9.55a32.12,32.12,0,0,0-13.59-2.7c-12.3,0-21.39,6.32-22.9,14.69C277,39,280.12,44,290,47.11c5.35,1.76,6.77,2.87,6.34,5.23S293.76,56,289.11,56a29,29,0,0,1-12.93-3.32Z"/><path class="cls-1" d="M360,38.31C361.91,27.78,358.17,19,341.49,19A50.48,50.48,0,0,0,321.39,23l1.26,8.93a34.5,34.5,0,0,1,14.46-3.35c7.65,0,8.48,3.35,8,5.78l0,.59c-17.71,0-30.42,5.49-32.33,17-1.35,7.18,3.54,13.72,13.68,13.72a22.3,22.3,0,0,0,15.27-5.48H342l.2,4.43h13.95a56.67,56.67,0,0,1,1.06-10.78ZM343.14,48.5a8.68,8.68,0,0,1-.64,2.36,10.73,10.73,0,0,1-9,5.1c-3.49,0-5.83-1.7-5.26-5.23,1-5.32,7.61-7,15.76-7Z"/><path class="cls-1" d="M365.18,51.28c-.9,5.07-2,10.45-2.71,13.37h13.1l1.8-6.11h.16c2.58,5.26,8,7.16,13.8,7.16,11.45,0,24.17-8,27-24,2.55-13.69-4.64-22.46-16.57-22.46-7,0-12.64,2.41-16.27,6.27h-.22L389.76.08H374.19Zm17.76-12.05a8.57,8.57,0,0,1,.68-2.56,11.75,11.75,0,0,1,10.3-6.82c7.22,0,9.81,5.46,8.51,12.38-1.35,8-6.21,12.56-12.85,12.56-4.57,0-7.63-2.93-8-6.58a12.5,12.5,0,0,1,.14-2.43Z"/><path class="cls-1" d="M466.41,46.87A33.35,33.35,0,0,0,468,41.41c1.91-11-2.22-22.2-18.44-22.2-17.39,0-27.5,12.48-29.45,23.72-2.48,13.94,5.74,22.69,22.67,22.69a57.33,57.33,0,0,0,18.67-2.83l-.4-9.4a47.89,47.89,0,0,1-14.11,2c-7.24,0-13.28-2.77-12.7-8.48Zm-30.65-9.48c1.07-3.64,4.67-9,11.27-9,7.1,0,7.74,5.69,7.16,9Z"/><polygon class="cls-1" points="468.28 64.65 483.71 64.65 495.15 0 479.59 0 468.28 64.65"/><path class="cls-1" d="M0,61.79c3.63,1.91,11.08,3.8,18.88,3.8,18.94,0,29.32-8.7,31.13-19,1.54-8.7-3.12-14.33-14.59-18.31-8.51-3-12-4.74-11.25-8.64.5-3.07,4.25-5.94,11-5.94A32.63,32.63,0,0,1,49,16.61l5.41-11.1c-3.77-1.71-9.15-3-17-3C21.23,2.46,9.91,10.37,8,20.83,6.49,29.76,13.1,35.38,23.92,39c7.8,2.57,10.69,4.78,10.07,8.6-.7,4-5,6.63-12.16,6.63A37.84,37.84,0,0,1,5.22,50.41Z"/><path class="cls-1" d="M98.26,38.35C100.17,27.76,96.44,19,79.84,19a51.55,51.55,0,0,0-20.19,4L61,32a34.61,34.61,0,0,1,14.5-3.42c7.58,0,8.41,3.42,8,5.82l-.1.59C65.65,35,53,40.42,50.92,52,49.67,59.13,54.57,65.7,64.73,65.7c5.92,0,11.44-1.89,15.29-5.45h.26l.17,4.35H94.51a49.48,49.48,0,0,1,1-10.71ZM81.48,48.53a14,14,0,0,1-.7,2.36,10.71,10.71,0,0,1-9,5.08c-3.5,0-5.77-1.73-5.17-5.27.89-5.29,7.55-7,15.74-7Z"/><path class="cls-1" d="M101.15,64.6h15.56l4.49-25.67a11.35,11.35,0,0,1,1.13-3.46,10.48,10.48,0,0,1,8.93-5.18c5.61,0,7.19,3.91,6.15,9.62L133.08,64.6H148.6l4.66-26.25C155.6,25.17,149,19.1,138.74,19.1a22.47,22.47,0,0,0-16.69,7.18h-.39l.44-6.18H108.62c-.56,4-1.15,8.69-2.14,14.23Z"/><path class="cls-1" d="M167.61,11.92l-1.44,8.3h-6.65L157.68,30.4h6.66l-3.13,18.17c-1.17,6.27-.45,10.56,1.92,13.22,2.16,2.24,6.1,3.8,11.13,3.8a41.31,41.31,0,0,0,10.24-1.16L186.27,54a25.94,25.94,0,0,1-4.75.31c-4.52,0-5.67-2.4-4.74-7.8l2.8-16.1h11.13l1.84-10.18H181.43l2.15-12.06Z"/><path class="cls-1" d="M235.15,38.35C237,27.76,233.25,19,216.53,19a51,51,0,0,0-20.06,4l1.29,9a34.83,34.83,0,0,1,14.4-3.42c7.66,0,8.61,3.42,8.13,5.82l-.16.59c-17.67,0-30.31,5.46-32.31,17-1.29,7.16,3.57,13.73,13.71,13.73a22.56,22.56,0,0,0,15.34-5.45h.28l.14,4.35h13.94a61.36,61.36,0,0,1,1.11-10.71ZM218.24,48.53a11,11,0,0,1-.68,2.36,10.73,10.73,0,0,1-9,5.08c-3.44,0-5.81-1.73-5.17-5.27.92-5.29,7.58-7,15.81-7Z"/></svg>