<svg id="Capa_1" data-name="Capa 1" xmlns="http://www.w3.org/2000/svg" viewBox="0 0 226.08 87.09"><defs><style>.cls-1{fill:#ababab;}</style></defs><title>logos-partner</title><path class="cls-1" d="M41.51,31.78C41.51,48.65,36.33,57.6,26,57.6A20.32,20.32,0,0,1,9,48.1V16.82C13.36,11.34,18.9,7.7,25.56,7.7c10,0,16,8.31,16,24.08m8.81-.09C50.32,9.54,40.35,0,27.86,0,19.37,0,13.36,4.15,9,9V1.28H0V87.09l9-5V57c4.34,5,9.73,8.36,17.61,8.36,13.22,0,23.69-11.45,23.69-33.67"/><path class="cls-1" d="M98.3,48.65a21.86,21.86,0,0,1-18,9.42c-7.66,0-12.83-4.1-12.83-13.4,0-7.9,5.49-12.29,14.73-12.29,7.66,0,12.07,1.31,16.09,3.55Zm9,15.38V20.3C107.35,5.7,98.81,0,85.29,0a44.86,44.86,0,0,0-21,5l3.38,7.28a32.84,32.84,0,0,1,17-4.75C93.9,7.52,98.3,12,98.3,21.4v7.39a32.87,32.87,0,0,0-15.56-3.57c-12.46,0-24.1,6-24.1,20.05,0,15.21,10.35,20.09,20.15,20.09,8.88,0,15.11-4.19,19.51-9V64Z"/><path class="cls-1" d="M154.08,1.55C151.87.55,148.92,0,144.32,0a18.5,18.5,0,0,0-15.58,9.06V1.28h-9V64h9V27.23c0-12,4.95-19,13.61-19a18.08,18.08,0,0,1,9.48,2.4Z"/><rect class="cls-1" x="164" y="1.28" width="9.01" height="62.75"/><path class="cls-1" d="M226.08,47.65c0-11.27-6.94-14.73-18.81-20.06-10.6-4.8-13.89-6.93-13.89-12.2,0-4.57,3.89-7.8,10.47-7.8s10.77,1.83,15.66,5.66l5-6.56C219.72,2.75,213.06,0,204.42,0c-11.33,0-19.6,6.44-19.6,16,0,10,5.28,13.83,17.82,19.23C213.72,40,217.43,42.87,217.43,48c0,6.09-4,9.7-12.65,9.7-6.18,0-12-2.55-17.07-6.94l-5.26,6.57a34.86,34.86,0,0,0,22.11,8c10.89,0,21.52-5.39,21.52-17.71"/></svg>