<svg id="Capa_1" data-name="Capa 1" xmlns="http://www.w3.org/2000/svg" viewBox="0 0 754.55 52"><defs><style>.cls-1{fill:#ababab;}</style></defs><title>logos-partner</title><path class="cls-1" d="M21.29,2.38,0,50.92H7.79l5.64-14.07H33.82l5.47,14.07h8.28L27.13,2.38ZM16,30.49,23.78,11l7.57,19.47Z"/><path class="cls-1" d="M353.51,2.38,332.23,50.92H340l5.64-14.07h20.4l5.47,14.07h8.27L359.35,2.38ZM348.2,30.49,356,11l7.56,19.47Z"/><path class="cls-1" d="M577.23,2.38,555.94,50.92h7.78l5.65-14.07h20.39l5.47,14.07h8.27L583.07,2.38Zm-5.31,28.11L579.72,11l7.57,19.47Z"/><polygon class="cls-1" points="91.97 35.35 75.3 0.56 65.2 50.92 72.38 50.92 77.25 19.17 91.91 50.92 106.56 19.17 110.82 50.92 118.61 50.92 108.03 0.56 91.97 35.35"/><polygon class="cls-1" points="145.17 2.14 140.78 2.14 140.78 44.55 140.78 50.92 147.8 50.92 166.29 50.92 166.29 44.55 147.8 44.55 147.8 27.24 166.29 27.24 166.29 20.88 147.8 20.88 147.8 8.51 166.29 8.51 166.29 2.14 147.8 2.14 145.17 2.14"/><polygon class="cls-1" points="514.5 2.14 510.11 2.14 510.11 44.55 510.11 50.92 517.13 50.92 535.62 50.92 535.62 44.55 517.13 44.55 517.13 27.24 535.62 27.24 535.62 20.88 517.13 20.88 517.13 8.51 535.62 8.51 535.62 2.14 517.13 2.14 514.5 2.14"/><polygon class="cls-1" points="754.55 8.51 754.55 2.14 736.06 2.14 733.43 2.14 729.04 2.14 729.04 44.55 729.04 50.92 736.06 50.92 754.55 50.92 754.55 44.55 736.06 44.55 736.06 27.24 754.55 27.24 754.55 20.88 736.06 20.88 736.06 8.51 754.55 8.51"/><polygon class="cls-1" points="692.63 2.14 685.61 2.14 685.61 44.55 685.61 50.92 692.63 50.92 706.62 50.92 706.62 44.55 692.63 44.55 692.63 2.14"/><rect class="cls-1" x="245.64" y="2.14" width="7.03" height="48.78"/><polygon class="cls-1" points="437.12 36.39 406.32 4.65 403.88 2.14 399.29 2.14 399.29 50.92 406.32 50.92 406.32 16.04 437.12 47.15 440.87 50.92 444.13 50.92 444.13 43.62 444.13 2.14 437.12 2.14 437.12 36.39"/><path class="cls-1" d="M219.33,15.65A13.37,13.37,0,0,0,206,2.28h-7.19V2.14h-7V50.92h7V30.74L212.71,51c.49-.12,10.09,0,10.09,0L206.94,29A13.37,13.37,0,0,0,219.33,15.65ZM204.92,8.51A7.26,7.26,0,0,1,212,16a7.27,7.27,0,0,1-7.05,7.46h-6.14V8.51Z"/><path class="cls-1" d="M300,.32c-10.34,0-24.45,8.2-24.45,24.66v2.36C275.54,43.8,289.65,52,300,52c9.61,0,13.38-4.62,13.38-4.62V39.11A20.21,20.21,0,0,1,300,44.34c-16.67,0-17.52-17-17.52-17V25S283.32,8,300,8a20.15,20.15,0,0,1,13.38,5.23V4.94S309.6.32,300,.32Z"/><path class="cls-1" d="M643.12,32.18h11.25s.89,12.37-13.82,12.37A15.84,15.84,0,0,1,628.42,39c-6.47-7.18-7.13-18.15-.56-25.24a16.55,16.55,0,0,1,12.69-5.25s6.91-.81,14.61,7.08l6.12-5.13S655.36,0,640.55,0s-25.46,13-25.46,26.53,10.26,24.39,25.46,24.39c14,0,22.51-6.49,22.51-25.94H643.12Z"/></svg>