<svg id="Capa_1" data-name="Capa 1" xmlns="http://www.w3.org/2000/svg" viewBox="0 0 533.56 55"><defs><style>.cls-1{fill:#ababab;}</style></defs><title>logos-partner</title><path class="cls-1" d="M43.63,42.84,53,9.48h7.68L47.48,53.88H39.74l-9.4-34-9.48,34H13.28L0,9.48H7.68l9.47,33.36,9.4-33.36h7.68Zm64.72-11c0,12.76-9.66,23.1-22.32,23.1S63.7,44.56,63.7,31.8,73.45,8.37,86,8.37,108.35,18.9,108.35,31.8Zm-7.33,0c0-9.22-6.72-16.72-15-16.72S71.11,22.58,71.11,31.8c0,9.07,6.73,16.37,14.92,16.37S101,40.87,101,31.8ZM176.2,53.88h-7.34V25.16c0-5.77-3.7-10.08-9.66-10.08-5.77,0-9.64,4.31-9.64,10.08V53.88h-7.25V25.16c0-5.77-3.8-10.08-9.65-10.08S123,19.39,123,25.16V53.88h-7.33V25.43c0-9.66,7-17.06,17-17.06a14.74,14.74,0,0,1,13.28,7.32A14.82,14.82,0,0,1,159.2,8.37c10.09,0,17,7.4,17,17.06Zm51.27-13.8c-3.1,9.48-10.68,14.82-20.94,14.82-12.76,0-22.75-10.16-22.75-23.17,0-12.83,10-23.36,22.32-23.36,11.46,0,22.5,9.48,22.41,25.24H191.19c.95,9.23,8,14.65,15.34,14.65,6.29,0,10.78-3,13.18-8.18Zm-7.06-13C218.61,19.83,212.57,15,206.1,15c-6.11,0-12.58,4.48-14.48,12.07Zm23.27,26.81h-7.23v-27c0-11.2,7.92-18.52,18.52-18.52s18.44,7.32,18.44,18.52v27h-7.24V26.64c0-6.65-4.39-11.46-11.2-11.46S243.68,20,243.68,26.64ZM315.91,55c-10.78,0-18.61-5.79-19.83-15.17h7.42c.95,5.16,6,8.34,12.41,8.34,6.9,0,11.12-3.35,11.12-7.22,0-3.1-1.21-5.44-12.06-6.89s-17.33-4.14-17.33-12.5c0-6.38,5.52-13.19,17.41-13.19,10.25,0,17.16,5.17,18.1,13.87h-7.41c-1-4.74-5.26-7.16-10.69-7.16-5.86,0-10.08,2.77-10.08,6.21,0,3.2,2.5,4.31,11.2,5.7,9.82,1.54,17.93,3.43,17.93,13.54C334.1,49.39,326.52,55,315.91,55Zm68.36-14.92c-3.11,9.48-10.69,14.82-20.95,14.82-12.75,0-22.75-10.16-22.75-23.17,0-12.83,10-23.36,22.32-23.36,11.48,0,22.5,9.48,22.33,25.24H348c.94,9.23,8,14.65,15.34,14.65,6.28,0,10.78-3,13.18-8.18Zm-7.07-13C375.39,19.83,369.36,15,362.89,15c-6.12,0-12.59,4.48-14.48,12.07ZM413.84,54.9c-12.25,0-22.24-10.34-22.24-23.17s10-23.36,22.24-23.36a21.25,21.25,0,0,1,20.69,14.82h-7.85a14.29,14.29,0,0,0-12.84-8.11c-8.2,0-14.92,7.5-14.92,16.65s6.72,16.44,14.92,16.44a14.06,14.06,0,0,0,12.84-8.09h7.85A21.16,21.16,0,0,1,413.84,54.9ZM461.66,8.61v6.81c-8.53-.76-14,3.37-14,11.91V53.88h-7.23V27.5C440.47,14.05,450,7.25,461.66,8.61Zm45,31.47C503.57,49.56,496,54.9,485.72,54.9,473,54.9,463,44.74,463,31.73c0-12.83,10-23.36,22.33-23.36,11.46,0,22.49,9.48,22.41,25.24H470.37c.95,9.23,8,14.65,15.35,14.65,6.29,0,10.77-3,13.18-8.18Zm-7.08-13C497.78,19.83,491.75,15,485.29,15c-6.12,0-12.59,4.48-14.48,12.07Zm34,26.81c-10.34,1.19-17.5-4.93-17.5-16.22V0h7.24V9.48h10.08v7H523.3V37.66c0,7.86,4.74,9.83,10.26,9.48Zm-252-37.41V0h7.24V16.47Z"/></svg>