<svg id="Capa_1" data-name="Capa 1" xmlns="http://www.w3.org/2000/svg" viewBox="0 0 311.3 63"><defs><style>.cls-1{fill:#ababab;}</style></defs><title>logos-partner</title><path class="cls-1" d="M52.15,61.29H45.3V47.9c0-5.32,0-10.64,0-16,.06-8.87,3.94-15.07,11.2-18A20.38,20.38,0,0,1,79,18.88c.57.61,1.12,1.23,1.46,1.61,3-2.16,5.52-4.66,8.56-6.08,11.41-5.3,25.06,1.45,26.53,14.07,1.24,10.7.25,21.66.25,32.75H110c-.07-1.3-.19-2.61-.21-3.92-.17-8.53-.17-17.08-.52-25.61-.21-5.07-2.68-9-7.5-11a11.92,11.92,0,0,0-12.3,1.45c-3.93,2.93-5.09,7.15-5.12,11.79,0,7.68,0,15.35,0,23V61.2h-7c0-2.11,0-4.17,0-6.23,0-7.67.21-15.36-.17-23a12.91,12.91,0,0,0-20-10.52c-3.83,2.49-5,6.24-5.06,10.55q0,12.44,0,24.88Z"/><path class="cls-1" d="M122,0h6.42V20.1c1.4-1,2.26-1.51,3.06-2.12a24.38,24.38,0,0,1,30.24.24,25.36,25.36,0,0,1,7.14,30.16,24.55,24.55,0,0,1-47-9.15c-.27-12.48-.1-25-.11-37.45A15.56,15.56,0,0,1,122,0Zm24.33,19.89A17.93,17.93,0,0,0,128.62,38c.1,9.9,8.29,18.09,18,18a18,18,0,0,0,17.66-18.23A17.77,17.77,0,0,0,146.34,19.89Z"/><path class="cls-1" d="M245.83,57.68,240.52,62l-4.36-6.85c-3.39,2.06-6.67,4.73-10.43,6.19-10.16,4-21.17.54-27.85-8.1a25.55,25.55,0,0,1-.67-29.82A24.35,24.35,0,0,1,224,13.83a24.68,24.68,0,0,1,18,23.25c.08,2.47.05,5,0,7.42C241.78,49.19,242.6,53.6,245.83,57.68ZM217.6,19.89a17.74,17.74,0,0,0-18,17.77A18,18,0,0,0,217.13,56c9.8.2,18.14-8.21,18.08-18.24A18,18,0,0,0,217.6,19.89Z"/><path class="cls-1" d="M33.47,14.69h6.61c0,2.62,0,5.06,0,7.5,0,6.93.15,13.88-.1,20.8-.4,11-8.15,19.31-18.26,19.94A19.64,19.64,0,0,1,.57,45.26C-.38,36.19.17,27,.08,17.81c0-1,.15-1.92.25-3.08H6.85c0,4.13,0,8.17,0,12.22.07,5.56-.18,11.16.38,16.68C8,51.29,13.87,56.25,20.94,56S33,50.09,33.21,42.16c.2-8.41.07-16.84.1-25.26C33.32,16.3,33.4,15.7,33.47,14.69Z"/><path class="cls-1" d="M249.39.73h6.82V4.89c0,13.35,0,26.71,0,40.06,0,4.67.33,9.16,3.8,13.07l-4.61,4.83c-4.68-4.47-6-10-6-15.86-.06-11.74,0-23.49,0-35.23Z"/><path class="cls-1" d="M193.65,12.92v6.37c-9.22,2.92-11.83,6.45-11.9,16.15-.06,8.29-.07,16.58-.12,24.87,0,.22-.18.45-.38.91h-6.43c0-4.08,0-8,0-11.94.11-6.55,0-13.13.51-19.65C176.11,20.32,183.78,13.39,193.65,12.92Z"/><path class="cls-1" d="M289.35,13c-13.26-1.47-25.61,8.6-27,22-1.44,14.13,8.46,26.56,22.21,27.91,8.38.83,17.5-3.57,22-9.61h0a12.49,12.49,0,0,0,2.66-6v0a9.79,9.79,0,0,0,.14-1.42h-7.06a13,13,0,0,1-2.09,3.67h0l-.12.15c-4.43,5.79-10.95,7.57-18,5.57-6.67-1.9-10.8-6.5-12.63-13.74h41.6C312.87,26.74,303.35,14.55,289.35,13ZM269.94,34.17c-.1-6.63,8.49-14.64,17-14.33s16.14,6.41,16.82,14.33Z"/></svg>