<svg id="Capa_1" data-name="Capa 1" xmlns="http://www.w3.org/2000/svg" viewBox="0 0 285.77 60"><defs><style>.cls-1,.cls-2{fill:#ababab;}.cls-1{fill-rule:evenodd;}</style></defs><title>logos-partner</title><path class="cls-1" d="M239.11,30.05a17,17,0,1,1,17.05,17A17.06,17.06,0,0,1,239.11,30.05Zm-12,0a29,29,0,1,1,29,29A29,29,0,0,1,227.14,30.05Z"/><path class="cls-2" d="M256.16,59.59a29.58,29.58,0,1,1,29.61-29.54,29.65,29.65,0,0,1-29.61,29.54Zm0-57.91a28.34,28.34,0,1,0,28.33,28.37A28.38,28.38,0,0,0,256.16,1.68Zm0,46a17.65,17.65,0,1,1,17.67-17.61,17.63,17.63,0,0,1-17.67,17.61Zm0-34.07a16.42,16.42,0,1,0,16.36,16.46,16.42,16.42,0,0,0-16.36-16.46Z"/><path class="cls-1" d="M192.81,12.65V25.17l10.38-.06s5.35-1.53,5.07-6.38c0,0,.47-4.75-5.52-6.2ZM185.16,1.37s-5.92-.69-6.42,4.48V52.42s-.82,6.25,6,6.35h26s13.55-1.88,14-14.53c0,0,1-13.54-11.18-15.72,0,0,9.51-1.93,9.51-13.17,0,0-.24-12.66-13.23-14.11C207.72,1.32,185.16,1.37,185.16,1.37Zm7.31,33.34V47.32l11.5-.11s5.33-1.38,5-6.21c0,0,.68-5.54-5.72-6.38Z"/><path class="cls-2" d="M210.72,59.16h-26a6.3,6.3,0,0,1-5-1.95,6.59,6.59,0,0,1-1.37-4.75V5.85C179,.27,185.24,1,185.24,1c.17,0,22.48-.1,24.57-.14,13.28,1.45,13.59,14.34,13.59,14.46,0,8.79-5.81,12-8.49,13.05,11,3,10.17,15.71,10.17,15.84-.41,12.84-14.19,14.92-14.36,14.92ZM184.5,1.72c-1.5,0-5,.42-5.39,4.18V52.42a6.13,6.13,0,0,0,1.22,4.32,5.7,5.7,0,0,0,4.43,1.7h25.89c.78-.12,13.34-2.16,13.68-14.23.1-.57.81-13.22-10.91-15.33v-.77c.41-.06,9.22-2,9.22-12.76,0-.51-.39-12.34-12.87-13.74-2,.09-23.67.15-24.61.15a5.17,5.17,0,0,0-.66,0Zm7.63,45.94V34.35l11.15-.07h0c6.78.85,6.14,6.69,6.14,6.69.17,5.06-5.33,6.6-5.33,6.6l-12,.09Zm.75-12.57v11.8l11.09,0c.14,0,4.88-1.4,4.76-5.83,0-.29.53-5.23-5.45-6.08l-10.4.13Zm-.47-9.52V12.23l10.33-.1v0c6.26,1.51,5.88,6.53,5.88,6.53.23,5.09-5.34,6.75-5.4,6.79l-10.81.07ZM193.15,13V24.82l10-.07c.09,0,4.89-1.48,4.68-6,.09-.19.39-4.48-5.2-5.85l-9.52.12Z"/><path class="cls-1" d="M15.73.93S10.06,2.17,10.65,7.7c0,0,0,5.24,5.2,5.85H31.17V39.49s-.67,8-8.33,8c0,0-7.11.77-9.11-7.36l-.33-4.05a5.75,5.75,0,0,0-6.7-5.5s-6.65.63-6.06,7c0,0-1.48,15.41,11.53,20.36,0,0,25.07,7.52,32.43-13V6.94s.59-6-6.3-6.16Z"/><path class="cls-2" d="M22.38,59.85A40.72,40.72,0,0,1,12,58.49C-.9,53.62,0,38.58.05,37.53a6.59,6.59,0,0,1,1.33-5A8.64,8.64,0,0,1,6.51,30c7.09-.68,7.57,6,7.57,6l.3,4c1.77,7.41,8.29,6.84,8.29,6.84,7.15,0,7.9-7.15,7.92-7.46V14.17H15.85c-5.72-.72-5.79-6.38-5.79-6.38-.68-6,5.48-7.44,5.48-7.44l.19,0L38.25.22A6.83,6.83,0,0,1,43.71,2.3a6.56,6.56,0,0,1,1.48,4.56V45.09c-4.41,12.2-14.8,14.76-22.81,14.76Zm-9.9-2.56S36.75,64.6,44,44.72V6.94a5.53,5.53,0,0,0-1.2-3.79,6,6,0,0,0-4.52-1.74L15.73,1.6c-.52.12-5,1.38-4.47,6,0,.26.11,4.77,4.64,5.32H31.83V39.49c0,.15-.85,8.6-9,8.62-.11,0-7.63.68-9.67-7.86l-.39-4.08a5.1,5.1,0,0,0-6-5,7.78,7.78,0,0,0-3,1,4.94,4.94,0,0,0-2.44,5.15v.16h0c0,.15-1.36,15.08,11.16,19.75Z"/><path class="cls-1" d="M138.87,9.44s-2.64-10-18-8.66c0,0-12.42,1.91-15.65,13.73L105,51s-1,7.82,7.5,8.29c0,0,7.05.35,7.05-9.21V18.9s0-5.71,6.32-5.84c0,0,6.46-.93,6.46,5.54V51.89s-.95,6.6,6.58,7.35c0,0,7.68-.47,7.22-8.12V18.73s.12-5.67,6.38-5.67c0,0,6.31.49,6.31,5.1V51.41s-1.29,7.36,7.07,8c0,0,7.39-.63,6.93-8.45V17.08S171.09.78,154.76.66c0,0-9.33-.44-14,5.35Z"/><path class="cls-2" d="M165.85,60h0c-2.86-.15-5-1.15-6.29-2.85a7.34,7.34,0,0,1-1.28-5.77V18.16c0-4-5.68-4.47-5.68-4.47-5.68,0-5.9,4.85-5.9,5.09V51.12a7.48,7.48,0,0,1-3.73,7.5A10.38,10.38,0,0,1,139,59.85c-2.76-.26-4.69-1.2-5.88-2.75a7.81,7.81,0,0,1-1.47-5.21V18.6c0-4.35-3.11-5-5-5a3.31,3.31,0,0,0-.7,0c-5.7.12-5.87,5-5.87,5.21V50c0,9.56-6.83,9.82-7.57,9.82-2.91-.13-5-1.08-6.33-2.7a8.73,8.73,0,0,1-1.83-6.22l.3-36.53C107.9,2.3,120.64.22,120.82.22c12.24-1.17,16.71,5,18.08,7.77l1.32-2.39c4.24-5.21,12-5.6,14.31-5.6a1.32,1.32,0,0,1,.29,0c16.63.12,18.54,16.8,18.54,17l0,34c.47,8.36-7.34,9-7.51,9ZM152.47,12.46c2.46.19,7,1.59,7,5.7V51.41a6.52,6.52,0,0,0,1.06,5c1.07,1.36,2.86,2.18,5.33,2.33A6.9,6.9,0,0,0,172.11,51V17.08c0-.59-1.76-15.71-17.35-15.84h-.23c-1.59,0-9.24.27-13.37,5.1l-2.56,4.79-.37-1.51c0-.38-2.3-8.3-14.6-8.3-.84,0-1.71,0-2.74.09,0,0-12,2-15,13.2L105.54,51a8.14,8.14,0,0,0,1.48,5.4,7.74,7.74,0,0,0,5.44,2.3h0c.75,0,6.46-.27,6.46-8.62V18.9a6.6,6.6,0,0,1,6.88-6.44,4.67,4.67,0,0,1,.85-.06c1.48,0,6.22.45,6.22,6.2V51.89a6.37,6.37,0,0,0,1.19,4.46,6.64,6.64,0,0,0,4.84,2.3c.17,0,7-.55,6.53-7.48V18.73a6.58,6.58,0,0,1,7-6.27Z"/><path class="cls-1" d="M50.4,5.77s-.18-4,5.84-5.09c0,0,5.73-.16,6.23,4.92V34.18S61.22,46.06,74.13,47.46c0,0,13.94.28,13.29-13.92V5.29s0-4.61,6.15-5.07c0,0,6.05,0,5.82,5.07v32.9S97.2,57.94,75,59.31c0,0-21.05,1.13-24.3-20.67Z"/><path class="cls-2" d="M74.53,59.53c-3.5,0-21.16-1-24-20.82L50.22,5.77S50,1.6,56.24.46c.62,0,6,.2,6.44,5.14V34.18c-.1.53-1,11.71,11.46,13,.68,0,6.31-.07,10-3.91,2.15-2.35,3.26-5.63,3-9.73V5.29S87.24.52,93.57,0h0a7.45,7.45,0,0,1,4.86,1.82,4.78,4.78,0,0,1,1.21,3.51V38.19c0,.24-2.49,20-24.69,21.34ZM56.37.89C50.49,2,50.54,5.73,50.54,5.73l.35,32.91c2.93,19.51,20.17,20.52,23.64,20.52H75c21.89-1.37,24.32-20.79,24.32-21V5.29a4.42,4.42,0,0,0-1.15-3.15A7.28,7.28,0,0,0,93.57.44c-5.91.45-6,4.7-6,4.85V33.54c.19,4.27-.83,7.63-3.13,10.05-3.78,4-9.64,4.07-10.32,4.07-13-1.4-11.86-13.38-11.86-13.48V5.6C61.82,1,56.86.89,56.37.89Z"/></svg>