<svg id="Capa_1" data-name="Capa 1" xmlns="http://www.w3.org/2000/svg" viewBox="0 0 240.99 80"><defs><style>.cls-1{fill:#ababab;}</style></defs><title>logos-partner</title><polygon class="cls-1" points="240.99 1.7 211.66 78.61 194.79 78.56 205.81 53.49 185.95 1.76 202.71 1.76 213.6 35.11 214.2 35.11 224.27 1.7 240.99 1.7"/><path class="cls-1" d="M183.36,40.64c0,12.28-13.47,16.92-26.17,16.92s-25.86-4.89-25.86-17H148c0,3.81,5.21,5.22,9.24,5.22,3.84,0,8.95-1,8.95-4.66-.05-4.62-6.3-5.31-16.14-7.87-10.26-2.7-17.45-7.14-17.55-16.76C132.5,4.27,144.4,0,157.19,0c12.6,0,24.08,4.17,24.08,16.41l-16.39,0c0-3.4-4.22-4.68-7.69-4.68s-7.65.85-7.65,4.2c0,4.6,7,5.21,15,7.13C174.61,25.59,183.36,29.72,183.36,40.64Z"/><path class="cls-1" d="M122,55.48l-15.58.07V49.43h-.62c-2.58,5.23-7.81,8.13-16,8.13-13.69,0-25.48-11.17-25.48-28.92C64.3,10.68,75.1,0,88.89,0c7.68,0,13.94,3.13,16.78,7.87l.57-.06-.06-6H122ZM106.17,28.59c-.06-7.18-4-13.91-13.3-13.91s-12.33,7.5-12.33,14c0,6.79,3.66,14.21,13,14.21C103.21,42.77,106.17,35.05,106.17,28.59Z"/><path class="cls-1" d="M165.22,79.13C122.49,73.37,79.46,73,12.88,77.79l.71-3.07c66.62-5.86,119.06-8.91,147.84-8,17,.51,22.16,1.73,22.16,7.79C183.59,80.84,176,80.62,165.22,79.13Z"/><path class="cls-1" d="M55.55,28.25c0,2.11-.28,5.43-.28,5.43l-38.8.07c.41,6.27,5.15,10.76,11.74,10.74,4.8,0,7.89-1.77,9.37-5.13l16.92,0c-1.57,8-8.51,18.1-26,18.1C11.69,57.56,0,44.29,0,28.27,0,12,10.56,0,27.33,0S55.55,12.16,55.55,28.25ZM38.82,22.88C38.69,19.68,36.67,13,27.58,13c-8.1,0-10.73,6.66-11.12,9.86Z"/></svg>