<?xml version="1.0" encoding="utf-8"?>
<!-- Generator: Adobe Illustrator 24.0.2, SVG Export Plug-In . SVG Version: 6.00 Build 0)  -->
<svg version="1.1" id="Capa_1" xmlns="http://www.w3.org/2000/svg" xmlns:xlink="http://www.w3.org/1999/xlink" x="0px" y="0px"
	 viewBox="0 0 124.24 123.75" style="enable-background:new 0 0 124.24 123.75;" xml:space="preserve">
<style type="text/css">
	.st0{fill:#FFFFFF;}
	.st1{fill:none;stroke:#FFFFFF;stroke-width:4;stroke-linecap:round;stroke-linejoin:round;stroke-miterlimit:10;}
	.st2{fill:none;stroke:#008983;stroke-width:3;stroke-linecap:round;stroke-miterlimit:10;}
	.st3{fill:none;stroke:#008983;stroke-width:3;stroke-linecap:round;stroke-linejoin:round;stroke-miterlimit:10;}
	.st4{fill:none;stroke:#008983;stroke-width:3;stroke-miterlimit:10;}
	.st5{fill-rule:evenodd;clip-rule:evenodd;fill:#008983;}
	.st6{fill:#008983;}
	.st7{fill:none;stroke:#008983;stroke-width:2.4;stroke-miterlimit:10;}
	.st8{fill:none;stroke:#008983;stroke-width:2.4;stroke-linecap:round;stroke-miterlimit:10;}
	.st9{clip-path:url(#SVGID_2_);}
	.st10{clip-path:url(#SVGID_2_);fill:url(#SVGID_5_);}
	.st11{fill:#008280;}
	.st12{fill:#138680;}
	.st13{fill:none;stroke:#FFFFFF;stroke-width:0.8566;stroke-miterlimit:10;}
	.st14{clip-path:url(#SVGID_7_);}
	.st15{clip-path:url(#SVGID_7_);fill:url(#SVGID_14_);}
	.st16{fill:url(#SVGID_15_);}
	.st17{fill:#FF00FF;}
	.st18{fill:#00FF00;}
</style>
<g>
	<g>
		<path class="st0" d="M124.24,123.75H0V0h124.24V123.75z M2,121.75h120.24V2H2V121.75z"/>
	</g>
	<g>
		<g>
			<g>
				<path class="st0" d="M26.91,88.83c0.43-0.45,0.91-0.78,1.46-0.98c0.54-0.22,1.1-0.34,1.67-0.35c0.56,0,1.11,0.12,1.65,0.35
					c0.56,0.2,1.05,0.53,1.48,0.98l0.6,0.59l-1.23,1.28l-0.61-0.64c-0.27-0.25-0.57-0.45-0.89-0.57c-0.33-0.13-0.65-0.21-1-0.21
					c-0.34,0-0.69,0.08-1.01,0.21c-0.32,0.13-0.62,0.32-0.89,0.57c-0.25,0.26-0.43,0.54-0.59,0.88c-0.15,0.35-0.19,0.69-0.19,1.03
					c0,0.33,0.04,0.66,0.19,1.01c0.16,0.33,0.34,0.62,0.59,0.88c0.52,0.52,1.16,0.79,1.9,0.79c0.35,0,0.68-0.07,1.01-0.2
					c0.34-0.13,0.63-0.33,0.88-0.59l0.62-0.62l1.23,1.25l-0.6,0.61c-0.44,0.44-0.92,0.76-1.48,0.99c-0.53,0.22-1.1,0.32-1.65,0.32
					c-0.56,0-1.12-0.1-1.67-0.32c-0.55-0.24-1.04-0.55-1.46-1c-0.42-0.44-0.77-0.91-0.97-1.46c-0.21-0.54-0.3-1.1-0.3-1.68
					c0-0.56,0.09-1.13,0.3-1.68C26.14,89.74,26.49,89.25,26.91,88.83"/>
			</g>
			<g>
				<path class="st0" d="M41.39,93.29l1.25,1.24l-0.62,0.62c-0.42,0.41-0.87,0.74-1.42,0.97c-0.54,0.22-1.11,0.33-1.68,0.33
					c-0.59,0-1.17-0.11-1.71-0.33c-0.53-0.23-1.02-0.56-1.44-0.97c-0.42-0.45-0.76-0.93-0.95-1.49c-0.23-0.53-0.33-1.1-0.33-1.67
					c0-0.57,0.1-1.12,0.33-1.66c0.2-0.56,0.53-1.04,0.95-1.49c0.44-0.42,0.93-0.76,1.47-0.97c0.56-0.23,1.11-0.31,1.68-0.32
					c0.56,0,1.11,0.09,1.66,0.31c0.56,0.22,1.02,0.55,1.45,0.97l0.62,0.63l-4.92,4.93c0.52,0.25,1.01,0.34,1.59,0.24
					c0.56-0.08,1.07-0.34,1.47-0.78L41.39,93.29z M37.01,90.09c-0.53,0.53-0.77,1.17-0.77,1.91c0,0.41,0.08,0.8,0.26,1.17
					c0.16-0.16,0.39-0.39,0.72-0.72c0.33-0.32,0.66-0.67,1.03-1.03c0.35-0.39,0.71-0.71,1.04-1.05c0.32-0.33,0.59-0.58,0.77-0.76
					c-0.49-0.26-1.03-0.35-1.56-0.26C37.92,89.41,37.43,89.68,37.01,90.09"/>
			</g>
			<g>
				<path class="st0" d="M43.58,90.24c0.24-0.54,0.55-1.01,0.95-1.41c0.39-0.4,0.87-0.72,1.41-0.95c0.52-0.25,1.11-0.35,1.71-0.35
					c0.61,0,1.19,0.11,1.73,0.35c0.53,0.23,1,0.55,1.41,0.95c0.4,0.4,0.7,0.87,0.95,1.41c0.23,0.54,0.34,1.11,0.35,1.74v4.46h-1.76
					v-4.46c0-0.38-0.08-0.72-0.2-1.05c-0.13-0.34-0.32-0.61-0.57-0.85c-0.24-0.25-0.52-0.43-0.86-0.57c-0.3-0.14-0.67-0.2-1.04-0.2
					c-0.38,0-0.72,0.06-1.04,0.2c-0.32,0.15-0.59,0.33-0.83,0.58c-0.26,0.24-0.45,0.51-0.58,0.85c-0.15,0.33-0.22,0.67-0.22,1.05
					l0,4.46h-1.74v-4.46C43.23,91.35,43.34,90.78,43.58,90.24"/>
			</g>
			<g>
				<path class="st0" d="M53.96,88.82c0.44-0.45,0.92-0.78,1.46-0.98c0.55-0.22,1.12-0.34,1.67-0.34c0.56,0,1.13,0.12,1.66,0.34
					c0.56,0.21,1.03,0.53,1.46,0.98l0.63,0.58l-1.24,1.28L59,90.05c-0.29-0.25-0.56-0.45-0.91-0.57c-0.33-0.13-0.64-0.21-1-0.21
					c-0.35,0-0.68,0.08-1.02,0.21c-0.32,0.12-0.61,0.32-0.87,0.57c-0.26,0.27-0.46,0.54-0.59,0.88c-0.13,0.35-0.2,0.69-0.21,1.04
					c0,0.33,0.08,0.66,0.21,1.01c0.13,0.34,0.33,0.62,0.59,0.88c0.52,0.52,1.15,0.79,1.89,0.79c0.35,0,0.7-0.07,1.03-0.2
					c0.31-0.13,0.62-0.33,0.87-0.59l0.61-0.63l1.24,1.25l-0.62,0.61c-0.44,0.44-0.91,0.76-1.47,1c-0.53,0.21-1.09,0.32-1.65,0.32
					c-0.56,0-1.13-0.1-1.67-0.32c-0.54-0.23-1.02-0.56-1.46-1c-0.42-0.44-0.74-0.91-0.96-1.46c-0.21-0.54-0.29-1.09-0.29-1.67
					c0-0.57,0.08-1.13,0.29-1.68C53.22,89.73,53.54,89.24,53.96,88.82"/>
			</g>
			<g>
				<path class="st0" d="M61.52,91.99c0-0.61,0.14-1.21,0.35-1.74c0.23-0.53,0.56-1,0.95-1.4c0.4-0.4,0.87-0.73,1.41-0.95
					c0.54-0.25,1.1-0.34,1.72-0.34c0.61,0,1.19,0.09,1.73,0.33c0.53,0.22,1,0.56,1.4,0.96c0.41,0.39,0.72,0.87,0.94,1.4
					c0.25,0.53,0.36,1.13,0.36,1.74c0,0.61-0.12,1.19-0.36,1.72c-0.22,0.55-0.54,1.02-0.94,1.43c-0.41,0.42-0.88,0.72-1.41,0.96
					c-0.54,0.25-1.12,0.36-1.73,0.36c-0.61,0-1.18-0.11-1.72-0.36c-0.53-0.25-1-0.54-1.4-0.96c-0.39-0.41-0.72-0.88-0.95-1.42
					C61.66,93.18,61.52,92.59,61.52,91.99 M63.26,91.99c0,0.37,0.05,0.72,0.21,1.07c0.14,0.31,0.32,0.6,0.59,0.85
					c0.23,0.25,0.5,0.44,0.85,0.58c0.33,0.14,0.67,0.2,1.04,0.2c0.36,0,0.71-0.07,1.05-0.2c0.32-0.14,0.62-0.34,0.84-0.58
					c0.26-0.25,0.45-0.54,0.58-0.85c0.15-0.35,0.19-0.7,0.19-1.07c0-0.37-0.04-0.71-0.19-1.06c-0.13-0.3-0.33-0.59-0.58-0.82
					c-0.23-0.24-0.52-0.44-0.85-0.58c-0.33-0.16-0.68-0.22-1.04-0.21c-0.37,0-0.71,0.05-1.04,0.22c-0.34,0.14-0.62,0.34-0.85,0.58
					c-0.27,0.24-0.45,0.52-0.59,0.82C63.32,91.27,63.26,91.62,63.26,91.99"/>
			</g>
			<g>
				<path class="st0" d="M78.91,87.49v1.77l-5.32,0c-0.26,0-0.47,0.09-0.65,0.25c-0.17,0.17-0.26,0.39-0.26,0.65
					c0,0.23,0.09,0.45,0.26,0.63c0.18,0.18,0.38,0.26,0.65,0.26l3.53,0c0.37,0,0.71,0.08,1.04,0.23c0.32,0.12,0.6,0.33,0.85,0.55
					c0.24,0.22,0.44,0.53,0.57,0.84c0.14,0.33,0.21,0.69,0.21,1.04c0,0.39-0.07,0.72-0.21,1.06c-0.13,0.32-0.33,0.61-0.57,0.86
					c-0.25,0.22-0.53,0.44-0.85,0.58c-0.32,0.13-0.67,0.19-1.03,0.19l-5.32,0v-1.77l5.32,0c0.27,0,0.48-0.07,0.65-0.26
					c0.17-0.16,0.26-0.38,0.26-0.65c0-0.23-0.09-0.44-0.26-0.63c-0.18-0.16-0.38-0.25-0.65-0.25l-3.54,0
					c-0.37,0-0.71-0.08-1.05-0.23c-0.31-0.12-0.6-0.33-0.81-0.56c-0.27-0.24-0.44-0.54-0.58-0.85c-0.13-0.34-0.2-0.7-0.2-1.04
					c0-0.38,0.07-0.73,0.2-1.07c0.14-0.32,0.31-0.59,0.58-0.83c0.21-0.23,0.51-0.43,0.82-0.57c0.33-0.14,0.67-0.21,1.05-0.21
					L78.91,87.49L78.91,87.49z"/>
			</g>
			<g>
				<path class="st0" d="M89.2,87.49l0,4.45c0,0.61-0.11,1.19-0.34,1.73c-0.23,0.53-0.54,1.01-0.96,1.41
					c-0.39,0.42-0.87,0.74-1.41,0.98c-0.54,0.22-1.09,0.34-1.72,0.34c-0.61,0-1.19-0.12-1.72-0.33c-0.53-0.24-1-0.56-1.39-0.98
					c-0.41-0.4-0.73-0.88-0.95-1.41c-0.25-0.55-0.36-1.12-0.36-1.73l-0.01-4.45l1.75,0l0.01,4.45c0,0.38,0.08,0.73,0.22,1.05
					c0.14,0.33,0.32,0.61,0.56,0.86c0.25,0.25,0.53,0.44,0.85,0.57c0.33,0.14,0.65,0.21,1.04,0.21c0.37,0,0.71-0.07,1.05-0.21
					c0.32-0.13,0.61-0.32,0.85-0.57c0.25-0.25,0.43-0.53,0.57-0.86c0.13-0.32,0.19-0.68,0.19-1.05l0-4.45H89.2z"/>
			</g>
			<g>
				<path class="st0" d="M98.59,83.91v8.02c0,0.61-0.13,1.19-0.35,1.73c-0.23,0.53-0.55,1.01-0.95,1.41
					c-0.41,0.42-0.86,0.75-1.41,0.98c-0.53,0.22-1.12,0.34-1.71,0.34c-0.6,0-1.18-0.12-1.71-0.34c-0.53-0.23-1.02-0.56-1.41-0.98
					c-0.4-0.4-0.74-0.87-0.95-1.41c-0.24-0.55-0.35-1.13-0.35-1.73c0-0.62,0.11-1.2,0.35-1.75c0.22-0.53,0.54-0.99,0.95-1.42
					c0.4-0.37,0.88-0.7,1.41-0.94c0.53-0.22,1.11-0.34,1.71-0.34h2.66l0-3.57L98.59,83.91z M94.17,94.63c0.37,0,0.71-0.07,1.04-0.21
					c0.33-0.13,0.61-0.32,0.86-0.57c0.23-0.25,0.41-0.53,0.58-0.86c0.12-0.32,0.18-0.68,0.18-1.05v-2.68h-2.66
					c-0.37,0-0.71,0.08-1.03,0.23c-0.34,0.11-0.6,0.3-0.86,0.55c-0.26,0.23-0.44,0.54-0.59,0.86c-0.14,0.34-0.2,0.66-0.2,1.04
					c0,0.38,0.06,0.73,0.2,1.05c0.15,0.33,0.33,0.61,0.59,0.86c0.26,0.25,0.52,0.44,0.86,0.57C93.46,94.56,93.8,94.63,94.17,94.63"
					/>
			</g>
		</g>
		<g>
			<g>
				<g>
					<path class="st0" d="M45.89,51.49v-4.35c-0.63,1.12-1.26,1.78-1.65,2.14c-1.11,1.03-3.83,2.81-7.91,2.81
						c-0.72,0-1.95-0.03-3.63-0.48c-1.41-0.36-4.82-1.45-6.89-5.17c-0.51-0.91-1.41-2.81-1.41-5.56c0-1.3,0.18-4.53,2.58-7.34
						c1.35-1.6,4.28-4.05,9.47-4.05c1.08,0,5.15,0.15,8.21,2.63c1.44,1.18,2.19,2.45,2.55,3.02l-1.98,1.15
						c-0.33-0.64-0.51-0.94-0.96-1.48c-1.95-2.45-5.03-3.38-8-3.38c-0.66,0-2.19,0.03-3.89,0.69c-3.69,1.42-5.78,4.78-5.78,8.7
						c0,0.99,0.12,3.74,2.04,6.04c1.14,1.36,3.56,3.32,7.88,3.32c0.54,0,1.74-0.03,3.12-0.42c2.52-0.76,4.85-2.57,5.78-5.11
						c0.39-1.09,0.45-2.12,0.48-2.51H34.66v-1.81h13.06v11.15H45.89z"/>
				</g>
				<g>
					<path class="st0" d="M52.4,51.49V30.16h2.01v21.33H52.4z"/>
				</g>
				<g>
					<path class="st0" d="M59.98,32.58L61.51,40l15.25-3.2l0.37,1.8l-15.25,3.2l2.05,9.94l-2.02,0.43l-4.3-20.89l19.07-4L77.02,29
						L59.98,32.58z"/>
				</g>
				<g>
					<path class="st0" d="M90.75,31.91v19.58h-2.01V31.91h-9.5v-1.75h20.58v1.75H90.75z"/>
				</g>
			</g>
			<g>
				<g>
					<path class="st0" d="M32.94,73.52c-1.35,1-3.72,2.42-7.73,2.42c-3.86,0-6.08-1.21-7.4-2.18c-2.88-2.14-4.5-5.47-4.5-9.12
						c0-1.33,0.18-4.23,2.46-6.98c3.24-3.93,7.79-4.26,9.47-4.26c1.32,0,5.22,0.24,8.27,3.05c0.96,0.88,1.53,1.72,2.22,2.81l-1.8,1
						c-0.18-0.3-0.78-1.39-1.65-2.27c-2.46-2.54-5.93-2.69-6.98-2.69c-1.17,0-4.61,0.21-7.19,2.87c-2.34,2.41-2.55,5.5-2.55,6.62
						c0,1.18,0.21,4.11,2.64,6.53c2.58,2.6,5.96,2.75,7.13,2.75c1.44,0,4.97-0.21,7.73-3.35c0.45-0.51,0.72-0.84,1.37-1.93
						l1.83,0.88C35.75,70.53,34.91,72.04,32.94,73.52z"/>
				</g>
				<g>
					<path class="st0" d="M58.22,75.39l-2.73-5.53H41.87l-2.7,5.53h-2.13l10.43-21.33h2.28l10.67,21.33H58.22z M48.61,55.96
						l-5.93,12.21h11.98L48.61,55.96z"/>
				</g>
				<g>
					<path class="st0" d="M83.15,75.39l-8.35-9.52h-9.68v9.52h-2.04V54.06H77.7c0.51,0,1.02,0,1.53,0.03
						c0.87,0.03,3.35,0.15,4.85,2.45c0.87,1.33,0.93,2.81,0.93,3.38c0,0.85-0.15,3.08-2.16,4.59c-1.59,1.18-3.51,1.27-5.36,1.36
						l8.51,9.52L83.15,75.39L83.15,75.39z M81.17,56.51c-1.05-0.7-2.22-0.7-3.42-0.7H65.11v8.25h11.35c0.48,0,0.93,0,1.41-0.03
						c1.77-0.09,3.54-0.39,4.43-2.18c0.15-0.3,0.48-1.09,0.48-2.05C82.79,59.29,82.64,57.51,81.17,56.51z"/>
				</g>
				<g>
					<path class="st0" d="M110.51,68.11c-0.72,2.69-2.43,5.02-4.97,6.19c-2.16,1-4.37,1.09-6.65,1.09h-9.59V54.06h10.58
						c0.63,0,1.26,0,1.89,0.06c2.1,0.15,3.89,0.76,5.57,2.14c3.41,2.84,3.6,7.19,3.6,8.52C110.92,65.3,110.89,66.66,110.51,68.11z
						 M103.73,56.42c-1.38-0.52-2.43-0.61-3.87-0.61h-8.48v17.8h6.74c2.85,0,6.05-0.06,8.27-2.17c1.14-1.09,2.4-3.02,2.4-6.53
						C108.8,61.31,107.3,57.74,103.73,56.42z"/>
				</g>
			</g>
		</g>
	</g>
</g>
</svg>
