<?xml version="1.0" encoding="utf-8"?>
<!-- Generator: Adobe Illustrator 24.0.2, SVG Export Plug-In . SVG Version: 6.00 Build 0)  -->
<svg version="1.1" id="Capa_1" xmlns="http://www.w3.org/2000/svg" xmlns:xlink="http://www.w3.org/1999/xlink" x="0px" y="0px"
	 viewBox="0 0 95.31 104" style="enable-background:new 0 0 95.31 104;" xml:space="preserve">
<style type="text/css">
	.st0{fill:#FFFFFF;}
	.st1{fill:#008983;}
	.st2{fill-rule:evenodd;clip-rule:evenodd;fill:#008983;}
</style>
<g>
	<g>
		<g>
			<path class="st1" d="M43.12,68.13c-2.63,0-5.1-1.62-6.05-4.21l-10.6-28.97c-0.59-1.6-0.51-3.34,0.21-4.89
				c0.73-1.56,2.02-2.73,3.63-3.32l45.76-16.57c3.33-1.21,7.02,0.51,8.23,3.83l10.6,28.97c0.59,1.6,0.51,3.34-0.21,4.89
				c-0.72,1.56-2.02,2.73-3.63,3.32L45.31,67.74C44.59,68.01,43.85,68.13,43.12,68.13z M78.28,13.78c-0.28,0-0.56,0.05-0.83,0.15
				L31.68,30.5c-0.61,0.22-1.1,0.67-1.37,1.25c-0.27,0.58-0.3,1.23-0.08,1.83l10.6,28.97c0.46,1.25,1.86,1.9,3.12,1.44l45.76-16.57
				c0.61-0.22,1.1-0.67,1.37-1.25c0.27-0.58,0.3-1.23,0.08-1.83l-10.6-28.97C80.2,14.39,79.27,13.78,78.28,13.78z"/>
		</g>
		<g>
			
				<rect x="29.01" y="28.95" transform="matrix(0.9403 -0.3404 0.3404 0.9403 -7.0846 21.5096)" class="st1" width="57.52" height="4"/>
		</g>
		<g>
			
				<rect x="31.94" y="36.96" transform="matrix(0.9403 -0.3404 0.3404 0.9403 -9.6356 22.9849)" class="st1" width="57.52" height="4"/>
		</g>
		<g>
			<path class="st1" d="M42.92,56.77c-0.82,0-1.59-0.51-1.88-1.32c-0.38-1.04,0.16-2.19,1.2-2.56l8.32-3.01
				c1.04-0.38,2.19,0.16,2.56,1.2s-0.16,2.19-1.2,2.56l-8.32,3.01C43.38,56.73,43.15,56.77,42.92,56.77z"/>
		</g>
	</g>
	<g>
		<path class="st1" d="M47.65,104H12.87C5.77,104,0,98.23,0,91.13V12.87C0,5.77,5.77,0,12.87,0h34.78c5.18,0,9.84,3.08,11.86,7.86
			c0.43,1.02-0.05,2.19-1.06,2.62c-1.02,0.43-2.19-0.05-2.62-1.06C54.43,6.13,51.23,4,47.65,4H12.87C7.98,4,4,7.98,4,12.87v78.26
			c0,4.89,3.98,8.87,8.87,8.87h34.78c4.89,0,8.87-3.98,8.87-8.87V72.3c0-1.1,0.9-2,2-2s2,0.9,2,2v18.83
			C60.52,98.23,54.75,104,47.65,104z"/>
	</g>
	<g>
		<path class="st1" d="M38.78,18.13H2c-1.1,0-2-0.9-2-2s0.9-2,2-2h36.78c1.1,0,2,0.9,2,2S39.88,18.13,38.78,18.13z"/>
	</g>
	<g>
		<path class="st1" d="M58.52,85.52H2c-1.1,0-2-0.9-2-2s0.9-2,2-2h56.52c1.1,0,2,0.9,2,2S59.63,85.52,58.52,85.52z"/>
	</g>
	<g>
		<path class="st1" d="M35.7,11.61H24.83c-1.1,0-2-0.9-2-2s0.9-2,2-2H35.7c1.1,0,2,0.9,2,2S36.8,11.61,35.7,11.61z"/>
	</g>
	<g>
		<path class="st1" d="M30.26,98.57c-3.5,0-6.35-2.85-6.35-6.35c0-3.5,2.85-6.35,6.35-6.35s6.35,2.85,6.35,6.35
			C36.61,95.72,33.76,98.57,30.26,98.57z M30.26,89.87c-1.29,0-2.35,1.05-2.35,2.35c0,1.29,1.05,2.35,2.35,2.35s2.35-1.05,2.35-2.35
			C32.61,90.92,31.56,89.87,30.26,89.87z"/>
	</g>
</g>
</svg>
