<?xml version="1.0" encoding="utf-8"?>
<!-- Generator: Adobe Illustrator 24.0.2, SVG Export Plug-In . SVG Version: 6.00 Build 0)  -->
<svg version="1.1" id="Capa_1" xmlns="http://www.w3.org/2000/svg" xmlns:xlink="http://www.w3.org/1999/xlink" x="0px" y="0px"
	 viewBox="0 0 104 104" style="enable-background:new 0 0 104 104;" xml:space="preserve">
<style type="text/css">
	.st0{fill:#FFFFFF;}
	.st1{fill:#008983;}
	.st2{fill-rule:evenodd;clip-rule:evenodd;fill:#008983;}
</style>
<g id="eco_friendly_00000148660500123610193150000003662163178633261703_">
	<g>
		<path class="st1" d="M52,104C23.33,104,0,80.67,0,52S23.33,0,52,0c8.26,0,16.17,1.88,23.48,5.59c0.99,0.5,1.38,1.7,0.88,2.69
			s-1.7,1.38-2.69,0.88C66.92,5.74,59.63,4,52,4C25.53,4,4,25.53,4,52s21.53,48,48,48c26.47,0,48-21.53,48-48
			c0-8.28-2.14-16.45-6.2-23.61c-0.54-0.96-0.21-2.18,0.75-2.73c0.96-0.54,2.18-0.21,2.73,0.76C101.68,34.18,104,43.03,104,52
			C104,80.67,80.67,104,52,104z"/>
	</g>
	<g>
		<g>
			<path class="st1" d="M30.33,83.03c-0.17,0-0.34-0.02-0.51-0.07c-1.07-0.28-1.7-1.38-1.42-2.45c4.32-16.34,13.37-30.1,26.17-39.79
				c0.88-0.67,2.14-0.49,2.8,0.39c0.67,0.88,0.49,2.13-0.39,2.8c-12.08,9.15-20.63,22.16-24.72,37.63
				C32.03,82.44,31.22,83.03,30.33,83.03z"/>
		</g>
		<g>
			<path class="st1" d="M50.1,80.62c-2.38,0-4.69-0.29-6.83-0.89c-1.06-0.3-1.69-1.4-1.39-2.46c0.3-1.06,1.4-1.69,2.46-1.39
				c10.11,2.82,24.7-2.17,29.49-13.83c2.16-5.27,2.04-10.92,1.9-16.9c-0.15-6.62-0.3-13.46,2.78-20.04
				c0.52-1.12,1.83-3.74,3.52-6.14c-13.47,1.34-30.55,4.7-42.53,15.16c-11.38,9.93-13.47,24.92-5.59,40.09
				c0.51,0.98,0.13,2.19-0.85,2.7c-0.98,0.51-2.19,0.13-2.7-0.85c-8.78-16.92-6.35-33.73,6.51-44.95
				c14.53-12.68,35.6-15.54,50.19-16.58c0.95-0.08,1.8,0.53,2.06,1.44c0.26,0.91-0.14,1.87-0.97,2.32
				c-1.79,0.96-4.39,5.02-6.03,8.52c-2.68,5.73-2.55,11.81-2.4,18.25c0.14,6.13,0.28,12.47-2.2,18.51
				C72.97,74.69,60.79,80.62,50.1,80.62z"/>
		</g>
	</g>
</g>
</svg>
