<?xml version="1.0" encoding="utf-8"?>
<!-- Generator: Adobe Illustrator 24.0.2, SVG Export Plug-In . SVG Version: 6.00 Build 0)  -->
<svg version="1.1" id="Capa_1" xmlns="http://www.w3.org/2000/svg" xmlns:xlink="http://www.w3.org/1999/xlink" x="0px" y="0px"
	 viewBox="0 0 147.19 100" style="enable-background:new 0 0 147.19 100;" xml:space="preserve">
<style type="text/css">
	.st0{fill:#FFFFFF;}
	.st1{fill:#008983;}
	.st2{fill-rule:evenodd;clip-rule:evenodd;fill:#008983;}
</style>
<g>
	<g>
		<path class="st2" d="M138.39,99.04l-3.2-2.93c-1.85-1.69-3.7-3.4-5.54-5.11l-3.66,4.87l0,0c-0.14,0.18-0.28,0.35-0.45,0.47
			c-0.18,0.14-0.37,0.24-0.55,0.33h-0.02c-0.14,0.06-0.3,0.08-0.47,0.1c-0.16,0-0.33,0-0.47-0.02h-0.02
			c-0.14-0.04-0.28-0.08-0.43-0.14l0,0c-0.12-0.06-0.24-0.14-0.37-0.22l0,0c-0.22-0.16-0.41-0.39-0.59-0.63l0,0
			c-0.16-0.22-0.29-0.49-0.41-0.79l0,0l-8.41-22.76l0,0c-0.16-0.43-0.24-0.83-0.28-1.2c-0.04-0.41-0.02-0.79,0.06-1.12v-0.02
			c0.06-0.16,0.12-0.33,0.2-0.49l0,0c0.08-0.14,0.18-0.28,0.31-0.41l0,0c0.12-0.12,0.24-0.24,0.39-0.33
			c0.14-0.1,0.31-0.18,0.47-0.24c0.33-0.1,0.69-0.16,1.1-0.16c0.37,0,0.79,0.06,1.24,0.18l0,0l23.37,6.53l0,0
			c0.31,0.08,0.59,0.18,0.83,0.33c0.24,0.14,0.47,0.33,0.63,0.53v-0.02c0.12,0.12,0.2,0.24,0.29,0.39l0,0
			c0.08,0.14,0.14,0.28,0.18,0.43l0,0c0.04,0.14,0.06,0.31,0.06,0.45l0,0c0,0.16-0.02,0.33-0.06,0.49v0.02
			c-0.06,0.16-0.14,0.37-0.27,0.55c-0.12,0.16-0.26,0.35-0.45,0.51l0,0l-4.54,4.05l4.21,3.87l0.39,0.35
			c1.55,1.43,3.09,2.85,4.62,4.28l0,0c0.2,0.18,0.35,0.37,0.43,0.59c0.12,0.22,0.18,0.45,0.18,0.69v0.02c0,0.24-0.02,0.49-0.12,0.73
			l0,0c-0.08,0.2-0.2,0.43-0.39,0.61l-2.57,2.81l0,0l-2.79,2.97c-0.16,0.16-0.37,0.28-0.57,0.35c-0.16,0.06-0.37,0.08-0.53,0.08
			c-0.79,0.04-1.22-0.37-1.67-0.79L138.39,99.04z M140.04,95.82l1.49-1.61l0,0l1.49-1.61l-2.73-2.5l-2.5-2.32
			c-1.3-1.2-2.61-2.38-3.89-3.58h-0.02l-0.2-0.2c-0.22-0.2-0.41-0.41-0.51-0.63c-0.14-0.24-0.2-0.49-0.18-0.75l0,0
			c0-0.29,0.06-0.55,0.2-0.79l0,0c0.14-0.22,0.33-0.43,0.55-0.65l0,0l3.89-3.44l-19.99-5.52l7.13,19.46l3.15-4.17l0,0
			c0.18-0.24,0.39-0.43,0.59-0.57c0.22-0.16,0.47-0.26,0.73-0.28l0,0c0.28-0.02,0.55,0.02,0.79,0.12l0,0
			c0.24,0.1,0.45,0.26,0.69,0.47l0,0c0.81,0.75,1.63,1.51,2.46,2.26c0.81,0.75,1.63,1.53,2.44,2.26c0.83,0.75,1.63,1.51,2.44,2.26
			L140.04,95.82z"/>
	</g>
	<g>
		<path class="st2" d="M102.13,59.02h0.02c0.63-0.71,1.71-0.75,2.42-0.12l7,6.31c0.69,0.63,0.75,1.73,0.12,2.42l0,0
			c-0.65,0.71-1.73,0.77-2.44,0.12l-6.98-6.31C101.56,60.81,101.5,59.73,102.13,59.02L102.13,59.02z"/>
	</g>
	<g>
		<path class="st2" d="M98.53,74.9L98.53,74.9c0-0.96,0.79-1.73,1.73-1.73l9.43,0.02c0.94,0,1.71,0.77,1.71,1.71l0,0
			c0,0.96-0.77,1.73-1.71,1.73l-9.43-0.02C99.3,76.61,98.53,75.83,98.53,74.9L98.53,74.9z"/>
	</g>
	<g>
		<path class="st2" d="M104.15,90.33L104.15,90.33c-0.65-0.67-0.65-1.77,0-2.42l6.68-6.66c0.67-0.67,1.77-0.67,2.44,0l0,0
			c0.65,0.67,0.65,1.77-0.02,2.42l-6.66,6.66C105.92,91,104.82,91,104.15,90.33L104.15,90.33z"/>
	</g>
	<g>
		<path class="st2" d="M118.05,53.26L118.05,53.26c-0.94,0.1-1.63,0.96-1.53,1.89l0.98,9.36c0.08,0.94,0.94,1.63,1.89,1.53l0,0
			c0.94-0.08,1.63-0.94,1.53-1.87l-0.98-9.38C119.85,53.85,118.99,53.15,118.05,53.26L118.05,53.26z"/>
	</g>
	<g>
		<path class="st2" d="M133.99,57.27L133.99,57.27c-0.73-0.61-1.83-0.49-2.42,0.24l-5.94,7.31c-0.59,0.73-0.47,1.83,0.26,2.42l0,0
			c0.73,0.61,1.81,0.49,2.42-0.24l5.92-7.31C134.85,58.94,134.73,57.86,133.99,57.27L133.99,57.27z"/>
	</g>
	<g>
		<path class="st2" d="M11.03,11.85h59.59h53.42h0.49v0.49v33.18v4.21v0.96c0,0.94,0.77,1.71,1.71,1.71l0,0
			c0.94,0,1.71-0.77,1.71-1.71v-0.96v-4.21V6.03c0-0.81-0.16-1.59-0.45-2.3c-0.3-0.73-0.75-1.4-1.3-1.97c-0.57-0.55-1.24-1-1.97-1.3
			c-0.71-0.29-1.49-0.45-2.3-0.45h-51.3H13.15c-0.81,0-1.59,0.16-2.3,0.45c-0.73,0.31-1.4,0.75-1.97,1.3c-0.55,0.57-1,1.24-1.3,1.97
			c-0.29,0.71-0.45,1.49-0.45,2.3v66.65v0.51H6.64H5.21H2.48c-0.33,0-0.65,0.06-0.96,0.18c-0.29,0.1-0.55,0.29-0.77,0.51
			c-0.24,0.24-0.43,0.51-0.57,0.81C0.06,74.98,0,75.3,0,75.65v2.04v0.83c0,1.34,0.26,2.61,0.75,3.77c0.49,1.2,1.22,2.28,2.14,3.18
			v0.02c0.9,0.9,2,1.63,3.18,2.14c1.16,0.47,2.44,0.73,3.77,0.73h60.79h20.36l0,0h1.14c0.94,0,1.71-0.77,1.71-1.73l0,0
			c0-0.94-0.77-1.71-1.71-1.71h-1.14h-4.01H70.62H9.83c-0.86,0-1.67-0.16-2.44-0.49c-0.77-0.31-1.49-0.79-2.08-1.36v-0.02
			c-0.59-0.59-1.06-1.3-1.38-2.08c-0.33-0.75-0.49-1.57-0.49-2.44v-0.83v-0.59v-0.49h0.49h2.71h2.2h44.93h1.32h0.12h0.06l0,0h0.49
			v0.49v0.04l0,0v1.63c0,0.55,0.33,1.06,0.77,1.44c0.53,0.45,1.24,0.73,1.91,0.73h12.17h6c0.67,0,1.36-0.28,1.89-0.73
			c0.47-0.39,0.79-0.9,0.79-1.44v-1.63v-0.53h0.51h0.16h1.32h5.66h4.01h1.14c0.94,0,1.71-0.77,1.71-1.71l0,0
			c0-0.96-0.77-1.71-1.71-1.71h-1.14h-4.01h-7.45h-1.28c-0.29,0-0.57,0.04-0.84,0.16c-0.26,0.1-0.51,0.27-0.69,0.47h-0.02
			c-0.18,0.2-0.35,0.45-0.47,0.69c-0.1,0.26-0.16,0.55-0.16,0.83v1.02v0.65v0.49h-0.49h-4.95H59.51h-0.49v-0.49v-0.65v-1.02
			c0-0.28-0.06-0.57-0.16-0.83c-0.12-0.24-0.28-0.49-0.49-0.69l0,0c-0.2-0.2-0.43-0.37-0.69-0.47c-0.27-0.12-0.55-0.16-0.86-0.16
			h-1.26H11.03h-0.49v-0.51V12.34v-0.49H11.03z M13.15,3.42h57.47h51.3l0,0c0.35,0,0.67,0.08,0.98,0.2
			c0.33,0.14,0.61,0.35,0.85,0.57l0,0c0.22,0.24,0.43,0.53,0.57,0.86c0.12,0.3,0.2,0.63,0.2,0.98v1.89v0.49h-0.49H70.62H11.03h-0.49
			V7.92V6.03c0-0.35,0.08-0.67,0.2-0.98c0.14-0.33,0.35-0.61,0.57-0.86l0,0c0.24-0.22,0.53-0.43,0.85-0.57
			C12.48,3.5,12.81,3.42,13.15,3.42L13.15,3.42z"/>
	</g>
	<g>
		<path class="st1" d="M71.78,45.03H57.63h-0.02l-0.02,0.08l0,0h-0.06l-0.02-0.06l0,0l0.02-0.02h-0.06l-0.02-0.08v-0.04l0,0h-0.02
			v-0.04v-0.02l-0.02-0.04v-0.06l0,0l-4.93-21.72l-0.02-0.08l0,0c-0.04-0.2-0.08-0.37-0.16-0.55c-0.1-0.16-0.22-0.33-0.47-0.51
			l-0.04-0.04l0,0c-0.06-0.04-0.12-0.06-0.16-0.1l0,0c-0.08-0.04-0.16-0.06-0.24-0.1l-0.08-0.02l0,0c-0.06-0.02-0.12-0.02-0.18-0.04
			l0,0c-0.08-0.02-0.16-0.02-0.24-0.02H44.6c-0.1,0-0.2,0.02-0.31,0.04c-0.1,0.02-0.2,0.04-0.31,0.08l0,0
			c-0.08,0.04-0.16,0.08-0.24,0.14c-0.1,0.06-0.16,0.12-0.24,0.18v0.02h-0.02c-0.08,0.08-0.14,0.16-0.2,0.24
			c-0.06,0.08-0.1,0.18-0.14,0.27v0.02c-0.04,0.1-0.08,0.18-0.1,0.3c-0.02,0.08-0.02,0.18-0.02,0.31c0,0.2,0.04,0.41,0.12,0.59
			c0.08,0.2,0.2,0.39,0.35,0.53l0,0l0,0l0,0c0.14,0.14,0.33,0.26,0.53,0.35c0.18,0.08,0.39,0.12,0.59,0.12h4.95h0.08l0.02,0.08
			l4.62,20.5l0,0l0,0l0.02,0.12l0.02,0.12l0.02,0.02l0.02,0.1l0,0l0.02,0.04l0,0l0.02,0.1c0.02,0.04,0.02,0.08,0.04,0.12l0,0
			l0.04,0.12l0.04,0.1l0,0v0.02l0,0l0.08,0.14l0,0l0.04,0.12l0.04-0.02l0.04,0.12l0.02,0.08l0.02,0.02l0.02,0.06l-0.02,0.04
			c-0.02,0.06-0.04,0.1-0.06,0.14l0,0c-0.02,0.04-0.04,0.08-0.06,0.12l0,0c-0.04,0.1-0.08,0.2-0.1,0.3l0,0
			c-0.04,0.1-0.06,0.2-0.08,0.31l0,0c-0.02,0.1-0.04,0.22-0.04,0.33c-0.02,0.1-0.02,0.2-0.02,0.3v1.63c0,0.14,0,0.28,0.02,0.41
			c0,0.14,0.02,0.28,0.06,0.41c0.02,0.14,0.06,0.28,0.1,0.41c0.04,0.12,0.08,0.27,0.14,0.39v0.02c0.04,0.12,0.1,0.24,0.16,0.37
			c0.08,0.12,0.14,0.24,0.22,0.37c0.08,0.12,0.16,0.22,0.26,0.33c0.06,0.1,0.14,0.2,0.24,0.28l0,0l0.02,0.02
			c0.1,0.1,0.2,0.2,0.31,0.28l0,0c0.12,0.08,0.22,0.18,0.35,0.24c0.12,0.08,0.24,0.16,0.37,0.22c0.12,0.06,0.24,0.12,0.37,0.18
			c0.12,0.04,0.26,0.1,0.39,0.14c0.14,0.04,0.27,0.06,0.41,0.1c0.14,0.02,0.28,0.04,0.41,0.06c0.14,0,0.29,0.02,0.43,0.02h14.74
			h1.38h5.35c0.22,0,0.43-0.04,0.61-0.12c0.2-0.08,0.37-0.2,0.53-0.35l0,0c0.14-0.16,0.26-0.33,0.35-0.53
			c0.08-0.18,0.12-0.39,0.12-0.61c0-0.2-0.04-0.41-0.12-0.61l0,0c-0.08-0.18-0.2-0.37-0.35-0.51c-0.14-0.14-0.33-0.27-0.53-0.35
			c-0.18-0.08-0.39-0.12-0.61-0.12h-5.35h-1.38H58.65c-0.04,0-0.08,0-0.12,0c-0.02,0-0.06-0.02-0.08-0.02l-0.1-0.02l0,0l0,0l0,0
			c-0.04-0.02-0.08-0.02-0.1-0.04l0,0c-0.04-0.02-0.06-0.02-0.1-0.04c-0.02-0.02-0.06-0.04-0.08-0.06l0,0
			c-0.02-0.02-0.06-0.04-0.08-0.06c-0.02-0.02-0.06-0.04-0.08-0.06c-0.02-0.04-0.06-0.06-0.08-0.1c-0.02-0.02-0.04-0.04-0.06-0.06
			c-0.02-0.04-0.02-0.06-0.04-0.1l0,0c-0.02-0.02-0.04-0.06-0.04-0.08l0,0c-0.02-0.04-0.04-0.06-0.04-0.1l0,0V50.2h-0.02l-0.02-0.08
			c0-0.02,0-0.06,0-0.1c0-0.02,0-0.06,0-0.1v-1.59v-0.04h-0.02l0,0l0,0l0.02-0.02v-0.04l0,0v-0.02h0.1l0,0h0.14v0.02h13.94h2.99h4.3
			c0.1,0,0.2,0,0.31-0.02c0.08,0,0.18-0.02,0.28-0.04c0.1-0.02,0.2-0.04,0.29-0.08c0.1-0.02,0.2-0.06,0.28-0.08
			c0.08-0.04,0.18-0.08,0.27-0.14l0,0c0.08-0.04,0.16-0.08,0.24-0.14c0.1-0.06,0.16-0.12,0.24-0.18l0,0
			c0.08-0.06,0.16-0.14,0.22-0.2l0,0c0.06-0.06,0.12-0.12,0.18-0.18c0.06-0.08,0.12-0.16,0.16-0.24c0.06-0.06,0.1-0.14,0.16-0.22
			c0.04-0.08,0.08-0.16,0.12-0.24c0.06-0.1,0.1-0.18,0.14-0.26l0,0c0.02-0.1,0.06-0.18,0.08-0.27l0,0c0.04-0.08,0.06-0.18,0.08-0.26
			c0.02-0.1,0.04-0.2,0.06-0.28l0,0l2.69-14.33v-0.02l0.02-0.08v-0.04l0.02-0.08v-0.02l0,0c0-0.04,0-0.1,0-0.14c0-0.04,0-0.08,0-0.1
			c0-0.1,0-0.18,0-0.26c-0.02-0.1-0.04-0.18-0.06-0.29l0,0c0-0.08-0.04-0.18-0.06-0.26c-0.02-0.08-0.06-0.18-0.1-0.26l0,0
			c-0.04-0.08-0.08-0.16-0.12-0.24l0,0c-0.04-0.08-0.1-0.16-0.14-0.24l0,0c-0.06-0.08-0.12-0.16-0.16-0.22l0,0
			c-0.06-0.06-0.14-0.14-0.2-0.2c-0.06-0.06-0.12-0.12-0.18-0.18c-0.04-0.02-0.08-0.06-0.1-0.08l0,0l-0.1-0.06
			c-0.06-0.04-0.12-0.1-0.2-0.14l0,0c-0.06-0.04-0.14-0.08-0.2-0.12c-0.08-0.04-0.16-0.06-0.22-0.1l0,0
			c-0.08-0.04-0.16-0.06-0.24-0.08l-0.08-0.04c-0.04-0.02-0.1-0.02-0.14-0.04c-0.08-0.02-0.16-0.04-0.24-0.06h-0.02H82.2v-0.02l0,0
			l0,0h-0.02h-0.04l0,0l-0.1-0.02l0,0h-0.06l0,0H81.9l-0.14-0.02H60.87h-3.05h-0.73c-0.1,0-0.2,0.02-0.31,0.04
			c-0.1,0.02-0.2,0.04-0.31,0.08c-0.1,0.04-0.18,0.1-0.26,0.16c-0.1,0.04-0.18,0.12-0.24,0.18l0,0v0.02
			c-0.08,0.06-0.14,0.14-0.2,0.22c-0.06,0.1-0.1,0.18-0.14,0.28c-0.04,0.1-0.08,0.2-0.1,0.31c-0.02,0.08-0.02,0.2-0.02,0.31
			c0,0.1,0,0.2,0.02,0.31c0.02,0.08,0.04,0.16,0.06,0.22l0.04,0.08c0.04,0.08,0.08,0.18,0.14,0.26l0,0
			c0.06,0.08,0.12,0.16,0.18,0.24h0.02l0.08,0.08h-0.02c0.06,0.04,0.12,0.08,0.16,0.12c0.1,0.06,0.18,0.1,0.28,0.14l0,0
			c0.1,0.04,0.2,0.08,0.31,0.1c0.1,0.02,0.2,0.02,0.31,0.02h0.73h3.05h20.7h0.12l-0.02,0.12l-2.59,13.88h-0.02v0.06l0,0l-0.02,0.06
			l0,0l-0.02,0.04l0,0v0.04l-0.04,0.06h-0.06h-4.15H71.78z"/>
	</g>
	<g>
		<path class="st2" d="M60.4,55.5c2.1,0,3.79,1.71,3.79,3.79c0,2.1-1.69,3.79-3.79,3.79c-2.08,0-3.79-1.69-3.79-3.79
			C56.61,57.21,58.32,55.5,60.4,55.5L60.4,55.5z M60.4,58.41c0.51,0,0.9,0.39,0.9,0.88c0,0.49-0.39,0.9-0.9,0.9
			c-0.49,0-0.88-0.41-0.88-0.9C59.53,58.79,59.91,58.41,60.4,58.41L60.4,58.41z"/>
	</g>
	<g>
		<path class="st2" d="M77.42,55.5c2.1,0,3.79,1.71,3.79,3.79c0,2.1-1.69,3.79-3.79,3.79c-2.08,0-3.79-1.69-3.79-3.79
			C73.63,57.21,75.34,55.5,77.42,55.5L77.42,55.5z M77.42,58.41c0.51,0,0.9,0.39,0.9,0.88c0,0.49-0.39,0.9-0.9,0.9
			c-0.49,0-0.88-0.41-0.88-0.9C76.54,58.79,76.93,58.41,77.42,58.41L77.42,58.41z"/>
	</g>
</g>
</svg>
