<?xml version="1.0" encoding="utf-8"?>
<!-- Generator: Adobe Illustrator 24.0.2, SVG Export Plug-In . SVG Version: 6.00 Build 0)  -->
<svg version="1.1" id="Capa_1" xmlns="http://www.w3.org/2000/svg" xmlns:xlink="http://www.w3.org/1999/xlink" x="0px" y="0px"
	 viewBox="0 0 106.33 104" style="enable-background:new 0 0 106.33 104;" xml:space="preserve">
<style type="text/css">
	.st0{fill:#FFFFFF;}
	.st1{fill:#008983;}
	.st2{fill-rule:evenodd;clip-rule:evenodd;fill:#008983;}
</style>
<g>
	<g>
		<g>
			<path class="st1" d="M8.98,94.7c-0.51,0-1.02-0.2-1.41-0.59c-0.78-0.78-0.78-2.05,0-2.83l20.93-20.93c0.78-0.78,2.05-0.78,2.83,0
				c0.78,0.78,0.78,2.05,0,2.83L10.39,94.11C10,94.5,9.49,94.7,8.98,94.7z"/>
		</g>
	</g>
	<g>
		<g>
			<path class="st1" d="M88.05,62.14c-1.1,0-2-0.9-2-2V4H20.28v56.14c0,1.1-0.9,2-2,2s-2-0.9-2-2V2c0-1.1,0.9-2,2-2h69.77
				c1.1,0,2,0.9,2,2v58.14C90.05,61.24,89.15,62.14,88.05,62.14z"/>
		</g>
	</g>
	<g>
		<g>
			<path class="st1" d="M97.35,94.7c-0.51,0-1.02-0.2-1.41-0.59L75,73.18c-0.78-0.78-0.78-2.05,0-2.83c0.78-0.78,2.05-0.78,2.83,0
				l20.93,20.93c0.78,0.78,0.78,2.05,0,2.83C98.37,94.5,97.86,94.7,97.35,94.7z"/>
		</g>
	</g>
	<g>
		<g>
			<path class="st1" d="M97.35,104H8.98C4.03,104,0,99.97,0,95.02V48.51c0-3.99,2.79-6.34,4.83-8.05l0.52-0.44
				c2.04-1.75,11.3-9.05,11.69-9.35l2.48,3.14c-0.1,0.08-9.58,7.55-11.56,9.25L7.4,43.52C5.35,45.25,4,46.53,4,48.51v46.51
				C4,97.77,6.23,100,8.98,100h88.37c2.74,0,4.98-2.23,4.98-4.98V48.51c0-1.98-1.35-3.26-3.4-4.99l-0.55-0.47
				c-1.98-1.7-11.47-9.17-11.56-9.25l2.48-3.14c0.39,0.31,9.65,7.6,11.69,9.36l0.52,0.44c2.04,1.72,4.83,4.07,4.83,8.05v46.51
				C106.33,99.97,102.3,104,97.35,104z"/>
		</g>
	</g>
	<g>
		<g>
			<path class="st1" d="M62.47,80.74h-18.6c-4.15,0-7.94-0.87-12.93-5.13c-0.04-0.03-0.08-0.07-0.12-0.11L7.56,52.25
				c-0.78-0.78-0.78-2.05,0-2.83c0.78-0.78,2.05-0.78,2.83,0l23.2,23.2c4.05,3.45,6.84,4.12,10.27,4.12h18.6
				c3.43,0,6.22-0.68,10.27-4.12l23.2-23.2c0.78-0.78,2.05-0.78,2.83,0c0.78,0.78,0.78,2.05,0,2.83L75.51,75.51
				c-0.04,0.04-0.08,0.07-0.12,0.11C70.41,79.87,66.62,80.74,62.47,80.74z"/>
		</g>
	</g>
	<g>
		<g>
			<path class="st1" d="M52.77,29.59c-1.92,0-9.27-0.26-13.53-4.05c-1.8-1.61-2.8-3.58-2.89-5.71c-0.08-1.98,0.67-3.97,2.11-5.58
				c3.1-3.47,7.75-3.68,11.31-0.51c4.85,4.32,5.37,13.36,5.39,13.75l0.11,2.04l-2.04,0.07C53.19,29.58,53.03,29.59,52.77,29.59z
				 M44.28,15.48c-1.01,0-1.98,0.48-2.83,1.42c-0.76,0.85-1.14,1.8-1.1,2.76c0.04,1.02,0.58,2.02,1.55,2.89
				c2.26,2.02,6.27,2.75,9.01,2.97c-0.45-2.77-1.55-6.79-3.81-8.8C46.18,15.89,45.21,15.48,44.28,15.48z"/>
		</g>
	</g>
	<g>
		<g>
			<path class="st1" d="M53.58,29.59c-0.27,0-0.44,0-0.48-0.01l-2.2-0.07l0.27-2.18c0.05-0.38,1.23-9.33,6.01-13.6
				c1.8-1.61,3.88-2.38,6-2.22c1.98,0.15,3.86,1.12,5.3,2.73c1.44,1.61,2.19,3.6,2.11,5.58c-0.09,2.13-1.08,4.1-2.89,5.71
				C63.46,29.33,55.62,29.59,53.58,29.59z M62.66,15.49c-0.94,0-1.91,0.42-2.81,1.22c-2.27,2.02-3.61,6-4.27,8.8
				c2.94-0.21,7.21-0.95,9.47-2.97c0.97-0.87,1.51-1.87,1.55-2.89c0.04-0.96-0.34-1.91-1.1-2.76c-0.76-0.85-1.66-1.33-2.61-1.4
				C62.82,15.5,62.74,15.49,62.66,15.49z"/>
		</g>
	</g>
	<g>
		<g>
			<polygon class="st1" points="76.09,62.14 30.23,62.14 30.23,39.21 34.23,39.21 34.23,58.14 72.09,58.14 72.09,39.21 76.09,39.21 
							"/>
		</g>
	</g>
	<g>
		<g>
			<polygon class="st1" points="78.42,41.21 57.81,41.21 57.81,37.21 74.42,37.21 74.42,29.58 31.91,29.58 31.91,37.21 48.51,37.21 
				48.51,41.21 27.91,41.21 27.91,25.58 78.42,25.58 			"/>
		</g>
	</g>
	<g>
		<g>
			<rect x="55.81" y="27.58" class="st1" width="4" height="32.56"/>
		</g>
	</g>
	<g>
		<g>
			<rect x="46.51" y="27.58" class="st1" width="4" height="32.56"/>
		</g>
	</g>
</g>
</svg>
